<?xml version="1.0" encoding="utf-8"?>
<!-- Generator: Adobe Illustrator 17.1.0, SVG Export Plug-In . SVG Version: 6.00 Build 0)  -->
<!DOCTYPE svg PUBLIC "-//W3C//DTD SVG 1.1//EN" "http://www.w3.org/Graphics/SVG/1.1/DTD/svg11.dtd">
<svg version="1.1" id="Layer_1" xmlns="http://www.w3.org/2000/svg" xmlns:xlink="http://www.w3.org/1999/xlink" x="0px" y="0px"
	 viewBox="-952 716 100.6 100.6" enable-background="new -952 716 100.6 100.6" xml:space="preserve">
<rect x="-952" y="716" fill="#EBEBEB" width="100.6" height="100.6"/>
<g>
	<polygon fill="#FFFFFF" points="-914,816.6 -851.4,754 -851.4,751.2 -916.8,816.6 	"/>
	<polygon fill="#FFFFFF" points="-895.6,816.6 -851.4,772.4 -851.4,769.4 -898.6,816.6 	"/>
	<polygon fill="#FFFFFF" points="-898.6,716 -952,769.4 -952,772.4 -895.6,716 	"/>
	<polygon fill="#FFFFFF" points="-916.8,716 -952,751.2 -952,754 -914,716 	"/>
	<polygon fill="#FFFFFF" points="-935.1,716 -952,732.9 -952,735.7 -932.3,716 	"/>
	<polygon fill="#FFFFFF" points="-904.7,816.6 -851.4,763.3 -851.4,760.2 -907.8,816.6 	"/>
	<polygon fill="#FFFFFF" points="-925.9,716 -952,742.1 -952,745 -923,716 	"/>
	<polygon fill="#FFFFFF" points="-941.3,816.6 -851.4,726.7 -851.4,723.6 -944.4,816.6 	"/>
	<polygon fill="#FFFFFF" points="-907.8,716 -952,760.2 -952,763.3 -904.7,716 	"/>
	<polygon fill="#FFFFFF" points="-923,816.6 -851.4,745 -851.4,742.1 -925.9,816.6 	"/>
	<polygon fill="#FFFFFF" points="-932.3,816.6 -851.4,735.7 -851.4,732.9 -935.1,816.6 	"/>
	<polygon fill="#FFFFFF" points="-851.4,716 -852.7,716 -952,815.3 -952,816.6 -950.6,816.6 -851.4,717.4 	"/>
	<polygon fill="#FFFFFF" points="-889.3,716 -952,778.7 -952,781.4 -886.6,716 	"/>
	<polygon fill="#FFFFFF" points="-944.4,716 -952,723.6 -952,726.7 -941.3,716 	"/>
	<polygon fill="#FFFFFF" points="-871,716 -952,797 -952,799.7 -868.3,716 	"/>
	<polygon fill="#FFFFFF" points="-859,816.6 -851.4,809 -851.4,806 -862,816.6 	"/>
	<polygon fill="#FFFFFF" points="-862,716 -952,806 -952,809 -859,716 	"/>
	<polygon fill="#FFFFFF" points="-851.4,816.6 -851.4,815.3 -852.7,816.6 	"/>
	<polygon fill="#FFFFFF" points="-877.4,816.6 -851.4,790.6 -851.4,787.7 -880.3,816.6 	"/>
	<polygon fill="#FFFFFF" points="-886.6,816.6 -851.4,781.4 -851.4,778.7 -889.3,816.6 	"/>
	<polygon fill="#FFFFFF" points="-880.3,716 -952,787.7 -952,790.6 -877.4,716 	"/>
	<polygon fill="#FFFFFF" points="-868.3,816.6 -851.4,799.7 -851.4,797 -871,816.6 	"/>
	<polygon fill="#FFFFFF" points="-952,716 -952,717.4 -950.6,716 	"/>
</g>
</svg>
