<?xml version="1.0" encoding="utf-8"?>
<svg viewBox="0 0 207 110" width="207px" height="110px" xmlns="http://www.w3.org/2000/svg" xmlns:bx="https://boxy-svg.com">
  <rect width="207" height="110" style="fill: rgb(32, 67, 143);"/>
  <g transform="matrix(0.346021, 0, 0, 0.346021, 23.499935, 21.522465)" fill="#fff" bx:origin="0.461851 0.285104">
    <path d="M126,20.1l21.6-0.8c29-1.1,31.2,14.5,31.2,18.3c0,13.9-13.8,18.8-25.4,20.1l-0.3-1.5c9-1.4,15.6-6,15.6-16 c0-12.9-10.8-18.7-22.4-18.6v49c0,10.9,0.2,12.9,13.2,14.8v1.5h-34.2v-1.5c11.9-1.6,12-4.6,12.3-14.8V39.9c0-13.5,0-17.7-11.6-18.3 V20.1z" fill="#ffffff"/>
    <path d="M205.6,87.9c-13.6,0-24.4-8.6-24.4-22.7c0-13.7,11.2-23.1,24.5-23.1c13.5,0,24.3,8.7,24.3,22.7 C229.9,78.3,218.6,87.9,205.6,87.9 M205.5,44.3c-10.7,0-15.1,11.1-15.1,20.2c0,9.2,5.2,21.2,15.9,21.2c10,0,14.5-11.4,14.5-19.9 C220.7,56.7,216.3,44.3,205.5,44.3" fill="#ffffff"/>
    <path d="M248.2,75.4c0,8.1,0.4,8.9,6.9,10v1.5h-21.8v-1.5c6.8-1.1,7.1-2.3,7.2-10V56.5c0-4.2,0.1-5.5-4.9-9v-1 l11.8-4.4l1.1,0.4l-0.8,7.6c4.6-4,10.1-8,16.5-8c5.2,0,10.3,3,12.1,8c4.7-4,10-8,16.5-8c14.7,0,12.9,15,12.9,20.3v13 c0,8.1,0.4,8.9,6.9,10v1.5h-21.8v-1.5c6.8-1.1,7.1-2.3,7.2-10V64.9c0-3.8,1.6-17.6-11.2-17.6c-4.3,0-7,1.9-9.9,4.9v23.3 c0,8.1,0.4,8.9,6.9,10v1.5h-21.8v-1.5c6.8-1.1,7.1-2.3,7.2-10V64.9c0-5.4,1.2-17.6-11.1-17.6c-4.3,0-7.2,2.1-10,5V75.4z" fill="#ffffff"/>
    <path d="M340.4,87.9c-13.6,0-24.4-8.6-24.4-22.7c0-13.7,11.2-23.1,24.5-23.1c13.5,0,24.3,8.7,24.3,22.7 C364.8,78.3,353.5,87.9,340.4,87.9 M340.3,44.3c-10.7,0-15.1,11.1-15.1,20.2c0,9.2,5.2,21.2,15.9,21.2c10,0,14.5-11.4,14.5-19.9 C355.5,56.7,351.1,44.3,340.3,44.3" fill="#ffffff"/>
    <path d="M375.3,56.5c0-4.2,0.1-5.5-4.9-9v-1l11.8-4.4l1.1,0.4l-0.8,7.2c5.7-4.2,11.1-7.6,17.4-7.6 c11.9,0,12.5,9.8,12.5,15.7v17.6c0,8.1,0.4,8.9,7.7,10v1.5h-23.1v-1.5c7.3-1.1,7.6-2.3,7.7-10V64c0-6.9,0.3-16.8-11.8-16.8 c-4.1,0-6.8,1.3-10.1,4.3v23.9c0,8.1,0.4,8.9,7.7,10v1.5h-23.1v-1.5c7.3-1.1,7.6-2.3,7.7-10V56.5z" fill="#ffffff"/>
    <path d="M446.2,62.3c0.8-10.8-2-15.3-9.8-15.3c-6.8,0-6.1,3.3-6.1,8.7l-5,0.3c-0.8,0-2.3,0.1-2.3-1 c0-2.7,10.9-13,18.9-13c9.1,0,11.9,6.9,11.9,14.9v14.1c0,8.7-0.6,10.8,8.6,12.7v1.5c-3.8,1.1-7,2.2-10,2.2c-4.2,0-5.8-2.4-6.2-6.2 c-3.2,3.6-7.5,6.7-12.6,6.7c-6.3,0-9.9-5.4-9.9-11.3c0-1.5,0.2-2.9,0.6-4.4L446.2,62.3z M432.9,71.2c-0.4,1.3-0.7,2.6-0.7,4 c0,4.2,2.4,7.8,6.9,7.8c2.7,0,5.4-1.8,7.1-3.7v-15L432.9,71.2z" fill="#ffffff"/>
    <path d="M189.3,122.5h-1.5c-1.9-11.2-8.4-19.2-20.3-19.2c-18.1,0-28.4,14.9-28.4,31.9c0,19.5,15,33.1,29.3,33.1 c13,0,18.1-9.5,22.6-20.2l1.4,0.6c-1.2,6-3.1,12-5.5,17.7c-6.3,3.1-13.2,4.3-20.2,4.3c-20.7,0-39.2-11.9-39.2-34.3 c0-17.6,13.8-35.5,40-35.5c7.5,0,15.2,1.5,21.7,5.4V122.5z" fill="#ffffff"/>
    <path d="M221.4,170.5c-13.6,0-24.4-8.6-24.4-22.7c0-13.7,11.2-23.1,24.5-23.1c13.5,0,24.3,8.7,24.3,22.7 C245.8,160.9,234.5,170.5,221.4,170.5 M221.3,126.9c-10.7,0-15.1,11.1-15.1,20.2c0,9.2,5.2,21.2,15.9,21.2 c10,0,14.5-11.4,14.5-19.9C236.6,139.3,232.1,126.9,221.3,126.9" fill="#ffffff"/>
    <path d="M248.1,169.5v-1.5c7.3-1.1,7.6-2.3,7.7-10v-45.3c0-4.2,0.1-5.5-4.9-9v-1l11.4-4.4l1.1,0.4V158 c0,8.1,0.4,8.9,7.7,10v1.5H248.1z" fill="#ffffff"/>
    <path d="M274.6,169.5v-1.5c7.3-1.1,7.6-2.3,7.7-10v-45.3c0-4.2,0.1-5.5-4.9-9v-1l11.4-4.4l1.1,0.4V158 c0,8.1,0.4,8.9,7.7,10v1.5H274.6z" fill="#ffffff"/>
    <path d="M309.3,144.3c-0.8,10.3,6.2,19.9,17.4,19.9c5.2,0,8.7-2.3,11.7-6.2l1.5,1.1c-3.8,6.4-10.5,11.5-18.2,11.5 c-12.3,0-20.8-10.1-20.8-22c0-12.8,8.9-23.8,22.3-23.8c8.9,0,14.9,5.6,15.3,14.6h-28.8L309.3,144.3z M329,136.6 c-0.9-4.6-3.7-9.7-8.9-9.7c-5.6,0-9,5.6-10.1,10.5L329,136.6z" fill="#ffffff"/>
    <path d="M376,162c10.6-0.4,16.5,4.1,16.5,10.7c0,9.7-13.2,20.8-30.8,20.8c-11.8,0-16.7-5.9-16.7-10.1 c0-7.4,7.6-10.9,13.3-13.9c-3.8-0.5-10.1-3-10.1-7.5c0-3.1,5.3-6.9,7.5-8.7c-4.8-2.7-8.1-7.1-8.1-12.7c0-10.2,9.3-15.9,18.6-15.9 c4.9,0,8.6,1.2,13,3.2h14.2v4.2l-12.1-0.3c1.4,2.5,2,4.8,2,7.7c0,10.1-9.1,15.9-18.4,15.9c-2.5,0-5.1-0.4-7.4-1.3 c-3.3,3.1-3.2,8.8,5.9,8.4L376,162z M361.4,169.5c-3.6,1.6-9.2,5.6-9.2,9.9c0,7.2,10.5,9.2,16.1,9.2c7.1,0,18.2-3.1,18.2-11.9 c0-9.3-12.9-7.9-15.4-7.8L361.4,169.5z M374.8,140.9c0-6.4-2.9-14-10.3-14c-6.4,0-8.5,6.6-8.5,12c0,9.8,5.9,14.3,10.4,14.3 C373,153.2,374.8,146.4,374.8,140.9" fill="#ffffff"/>
    <path d="M404.4,144.3c-0.8,10.3,6.2,19.9,17.4,19.9c5.2,0,8.7-2.3,11.7-6.2l1.5,1.1c-3.8,6.4-10.5,11.5-18.2,11.5 c-12.3,0-20.8-10.1-20.8-22c0-12.8,8.9-23.8,22.3-23.8c8.9,0,14.9,5.6,15.3,14.6h-28.7L404.4,144.3z M424.1,136.6 c-0.9-4.6-3.7-9.7-8.9-9.7c-5.7,0-9,5.6-10.1,10.5L424.1,136.6z" fill="#ffffff"/>
    <!--path d="M54.6,0C54.6,0,0,25.3,0,96.2c0,70.9,54.6,97,54.6,97s54.6-26,54.6-97S54.6,0,54.6,0" fill="#20438F"/-->
    <path d="M42.5,162c0-3,0-5.5,0.1-8.9h-4.2v0.3c2.4,0.3,2.5,0.8,2.5,2.8v5.8c0,2.1,0,2.8-2.5,3v0.3H45V165 C42.5,164.8,42.5,164.1,42.5,162" fill="#ffffff"/>
    <path d="M51.3,158.7l-0.2-0.1c1.2-0.8,2.5-1.5,2.5-3.1c0-1.8-1.8-2.6-3.3-2.6c-1.7,0-3.6,0.9-3.6,2.9 c0,1.5,1.2,2.3,2.3,3.1l0.2,0.1c-1.4,0.7-2.9,1.7-2.9,3.4c0,2.1,2.1,3,3.9,3c1.8,0,3.9-1.1,3.9-3.1 C53.9,160.6,52.6,159.7,51.3,158.7 M48.2,155.1c0-1,0.7-1.8,1.7-1.8c1.4,0,2.1,1.2,2.1,2.4c0,1-0.4,2-1.1,2.6 C49.8,157.6,48.2,156.7,48.2,155.1 M50.3,165c-1.6,0-2.6-1.4-2.6-2.9c0-1.1,0.7-2.3,1.6-2.9c1.2,0.9,3,1.9,3,3.6 C52.3,164.1,51.5,165,50.3,165" fill="#ffffff"/>
    <path d="M55.9,162.5c0,2.1,2.1,3,3.9,3c1.8,0,3.9-1.1,3.9-3.1c0-1.7-1.3-2.7-2.6-3.6l-0.2-0.1 c1.2-0.8,2.5-1.5,2.5-3.1c0-1.8-1.8-2.6-3.3-2.6c-1.7,0-3.6,0.9-3.6,2.9c0,1.5,1.2,2.3,2.3,3.1l0.2,0.1 C57.4,159.8,55.9,160.8,55.9,162.5 M57.9,155.1c0-1,0.7-1.8,1.7-1.8c1.4,0,2.1,1.2,2.1,2.4c0,1-0.4,2-1.1,2.6 C59.5,157.6,57.9,156.7,57.9,155.1 M59.1,159.3c1.2,0.9,2.9,1.9,2.9,3.6c0,1.1-0.8,2.1-2,2.1c-1.6,0-2.6-1.4-2.6-2.9 C57.5,161,58.1,159.9,59.1,159.3" fill="#ffffff"/>
    <path d="M68,154.6h3.6L66,165.5h1.2l6-12.3l-0.1-0.1h-7.3l-0.9,3.2l0.3,0.1C66.2,154.9,66,154.6,68,154.6" fill="#ffffff"/>
    <path d="M54.6,4.4c0,0-50.6,24.8-50.6,91.8c0,67,50.6,92.6,50.6,92.6s50.6-25.5,50.6-92.6 C105.2,29,54.6,4.4,54.6,4.4 M54.6,181.9c-11.8-6.8-22-17-29.7-29.5c8.9-4.3,19.2-6.5,29.9-6.5c10.5,0,20.7,2.2,29.6,6.4 C76.6,164.9,66.4,175.1,54.6,181.9 M86.1,149.3c-4.4-2.1-9-3.7-13.9-4.9v-1.5c0-2.9-1.6-3.3-3.7-3.7c0,0-6.1-1.3-13.9-1.3 c-7.8,0-13.9,1.3-13.9,1.3c-2.3,0.5-3.7,0.8-3.7,3.7c0,0.6,0,1.1,0,1.5c-4.8,1.2-9.5,2.8-13.8,4.9c-0.4-0.6-0.7-1.2-1-1.9 c-8.3-15.4-12.7-33.1-12.7-51.4C9.3,78,13.7,60.4,22,45.2c8-14.5,19.2-26.3,32.5-34c13.3,7.7,24.5,19.5,32.5,34 C95.4,60.4,99.8,78,99.8,96.2c0,18.2-4.4,36-12.7,51.4C86.8,148.1,86.4,148.7,86.1,149.3" fill="#ffffff"/>
    <path d="M67.5,134.1c-0.8-0.1-5.7-1.1-13-1.1c-7.3,0-12.9,1.1-12.9,1.1c-1.2,0.2-1.8,0.8-1.7,1.8 c0.1,1,0.9,1.4,1.8,1.2c0.9-0.2,6.2-1.1,12.8-1.1c6.6,0,12,1,12.8,1.1c0.8,0.2,1.6-0.3,1.8-1.2C69.4,134.9,68.7,134.3,67.5,134.1" fill="#ffffff"/>
    <path d="M41.5,106.3v23.3c0,1.4,1.1,2.5,2.5,2.5c1.4,0,2.5-1.1,2.5-2.5v-26.1c0,0-0.1-2.9,1.2-6.1 c1.3-3.2,2.7-4.4,2.7-4.4s-1.1,0.1-3.4,2.2C44.8,97.3,41.5,100.6,41.5,106.3" fill="#ffffff"/>
    <path d="M48.5,102.4V129c0,1.4,1.1,2.5,2.5,2.5c1.4,0,2.5-1.1,2.5-2.5V99.2c0,0-0.1-2.9,1.2-6.1 c1.3-3.2,2.7-4.4,2.7-4.4s-1.1,0.1-3.4,2.2C51.8,93,48.5,96.7,48.5,102.4" fill="#ffffff"/>
    <path d="M64.5,84.4c0,0-1.1,0.1-3.4,2.2c-2.3,2.1-5.6,5.8-5.6,11.5V129c0,1.4,1.1,2.5,2.5,2.5 c1.4,0,2.5-1.1,2.5-2.5V94.9c0,0-0.1-2.9,1.2-6.1C63.2,85.5,64.5,84.4,64.5,84.4" fill="#ffffff"/>
    <path d="M62.6,94.4v35.2c0,1.4,1.1,2.5,2.5,2.5c1.4,0,2.5-1.1,2.5-2.5V91.2c0,0-0.1-2.9,1.2-6.1 c1.3-3.2,2.7-4.4,2.7-4.4s-1.1,0.1-3.4,2.2C65.9,85,62.6,88.6,62.6,94.4" fill="#ffffff"/>
    <path d="M68.1,68.2c-6.8,0-17.4,3.6-26,3.6c-8.6,0-12.6-1.7-12.6-1.7L24.5,78c0,0,4.6,2.2,12,2.2 c15.9,0,26.8-6.4,34-6.4c1.9,0,3.8,0.5,4.2,2.4c0.4,2.2-1.1,3.7-1.1,3.7s3.6-2.4,3.6-5.7C77.2,70.8,74.9,68.2,68.1,68.2" fill="#ffffff"/>
    <path d="M65.5,60.1c-11.3,0.5-13.8,2.8-26,1.1c-6.2-0.9-13.7-4.7-13.7-4.7l-5,7.9c0,0,8.2,5.1,20.3,5.2 c11.3,0.1,18.6-3.2,27.6-3.2c6.2,0,8.2,2.7,8.9,3.9c1.5,2.6,0.4,5.6,0.4,5.6s5.2-5.7,0.7-11.5C75.6,60.5,69.9,59.9,65.5,60.1" fill="#ffffff"/>
    <path d="M83.9,63.7c-0.4-6.5-7.3-10.1-12.4-10.9c-11.5-1.7-17.7,0.7-28.2-1.7c-7.5-1.7-14.7-6.8-14.7-6.8l-5.3,7.9 c0,0,9.4,7.1,21.7,7.4c9.6,0.3,13.8-1.4,22.5-1.3c8.2,0.1,11.6,4.1,12.2,4.8c3.6,4.2,1,9.5,1,9.5S84.3,69.6,83.9,63.7" fill="#ffffff"/>
    <path d="M71.1,44c-10.1-1.2-12.6-0.9-18.9-2c-5.6-1-11-3.9-11-3.9L36,45.9c0,0,8.1,4.5,18.8,4.5 c12,0,18.6-0.5,25.1,4c8.2,5.5,4.6,14.3,4,15.3c0.1-0.1,4-4.5,3.9-10.3C87.7,52.3,82.1,45.3,71.1,44" fill="#ffffff"/>
  </g>
</svg>