<?xml version="1.0" encoding="UTF-8" standalone="no"?>
<!DOCTYPE svg  PUBLIC '-//W3C//DTD SVG 1.1//EN'  'http://www.w3.org/Graphics/SVG/1.1/DTD/svg11.dtd'>
<svg xmlns="http://www.w3.org/2000/svg">
<defs>
<font id="GalliardPro-Roman" horiz-adv-x="560">
<font-face underline-position="-50" font-weight="400" descent="-200" panose-1="2 2 6 2 6 5 11 2 10 4" units-per-em="1000" unicode-range="U+0020-25CA" bbox="-177 -259 1000 966" x-height="442" underline-thickness="50" font-family="GalliardPro" ascent="800" cap-height="680"/>
<missing-glyph horiz-adv-x="1000"/>
<glyph glyph-name=".notdef" horiz-adv-x="1000"/>
<glyph glyph-name=".null" horiz-adv-x="0"/>
<glyph glyph-name="nonmarkingreturn" horiz-adv-x="333"/>
<glyph glyph-name="space" horiz-adv-x="280" unicode=" "/>
<glyph glyph-name="exclam" horiz-adv-x="320" unicode="!" d="M156 -12q-22 0 -38 16t-16 38q0 23 16 39t38 16t38.5 -16.5t16.5 -38.5t-16 -38t-39 -16zM164 205h-19l-36 354l-4 63q0 28 12 49t37 21q26 0 38 -21t12 -49l-4 -63z"/>
<glyph glyph-name="quotedbl" horiz-adv-x="520" unicode='&quot;' d="M369 611l-23 -204q0 -1 -0.5 -6t-1 -8.5t-1.5 -7.5t-3.5 -6.5t-6.5 -2.5t-6.5 2.5t-3.5 6.5t-1 7.5t-0.5 8.5t-0.5 6l-16 204q-2 14 -2 28q0 53 33 53q35 0 35 -56q0 -11 -2 -25zM225 611l-23 -204q0 -1 -0.5 -6t-1 -8.5t-1.5 -7.5t-3.5 -6.5t-6.5 -2.5t-6.5 2.5 t-3.5 6.5t-1 7.5t-0.5 8.5t-0.5 6l-16 204q-2 14 -2 28q0 53 33 53q35 0 35 -56q0 -11 -2 -25z"/>
<glyph glyph-name="numbersign" d="M372 416h-133l-22 -137h134zM509 279v-57h-108l-31 -222h-58l31 222h-134l-33 -222h-57l33 222h-108v57h115l22 137h-109v57h117l31 207h58l-31 -207h133l30 207h57l-30 -207h98v-57h-106l-20 -137h100z" unicode="#"/>
<glyph glyph-name="dollar" d="M307 289v-262q43 8 71.5 43.5t28.5 79.5q0 89 -100 139zM279 401v252q-46 -8 -73 -38t-27 -77q0 -48 25.5 -79t74.5 -58zM467 642l-14 -148h-16q-7 35 -14.5 57.5t-22 47.5t-37.5 39t-56 17v-264q36 -18 53 -27.5t47.5 -30t45 -39t27 -46.5t12.5 -60q0 -75 -54 -127.5 t-131 -61.5v-89h-28v88h-14q-92 0 -190 48l-25 171l16 3q58 -193 213 -196v276q-42 20 -66 34.5t-56 39.5t-47.5 56.5t-15.5 69.5q0 72 55 120t130 59v65h28v-63q99 0 160 -39z" unicode="$"/>
<glyph glyph-name="percent" horiz-adv-x="640" unicode="%" d="M535 680l-383 -680h-48l383 680h48zM158 672q-20 0 -33.5 -17.5t-19.5 -45t-8 -49t-2 -40.5t2 -40.5t8 -49.5t19.5 -46t33.5 -18q19 0 32.5 18t19.5 46t8 50t2 40t-2 39.5t-8 49t-19.5 45.5t-32.5 18zM159 692q63 0 94 -52.5t31 -120.5q0 -67 -31.5 -120t-94.5 -53 q-64 0 -95.5 52.5t-31.5 120.5q0 69 31.5 121t96.5 52zM481 316q-20 0 -33.5 -17.5t-19.5 -45t-8 -49t-2 -40.5t2 -40.5t8 -49.5t19.5 -46t33.5 -18q19 0 32.5 18t19.5 46t8 50t2 40t-2 39.5t-8 49t-19.5 45.5t-32.5 18zM482 336q63 0 94 -52.5t31 -120.5q0 -67 -31.5 -120 t-94.5 -53q-64 0 -95.5 52.5t-31.5 120.5q0 69 31.5 121t96.5 52z"/>
<glyph glyph-name="ampersand" horiz-adv-x="860" unicode="&amp;" d="M233 401l-8 8q-28 25 -41.5 39t-28.5 41t-15 54q0 67 53.5 108t122.5 41q62 0 110.5 -33t48.5 -92q0 -22 -9 -42t-18.5 -31.5t-32 -26t-32.5 -20t-38 -18.5l-11 -6l198 -210q2 2 11 16t14 21t14.5 22t14.5 24.5t12.5 24t11.5 24.5t7 21t3 20t-6 15.5t-17 10t-20 5.5 t-22 3.5t-16 2.5v15h295v-15q-74 -5 -128.5 -43t-103.5 -105l-55 -77q32 -42 49 -62.5t48 -50t63.5 -42.5t69.5 -13q38 0 80 8l5 -13q-99 -35 -185 -35l-75 7q-13 1 -21.5 10.5t-14.5 23.5t-25.5 42.5t-47.5 57.5q-39 -46 -65.5 -72t-70.5 -48.5t-93 -22.5 q-67 0 -130.5 50.5t-63.5 140.5q0 123 163 222zM273 481l48 -43q71 56 71 122q0 41 -25 71.5t-65 30.5q-37 0 -60 -25.5t-23 -63.5q0 -20 8.5 -37.5t17.5 -27t28 -27.5zM248 385q-42 -23 -68.5 -65.5t-26.5 -89.5q0 -72 47.5 -119.5t119.5 -47.5q87 0 161 81 q-142 168 -233 241z"/>
<glyph glyph-name="quotesingle" horiz-adv-x="300" unicode="&apos;" d="M140 407l-16 204q-2 14 -2 28q0 53 33 53q35 0 35 -56q0 -11 -2 -25l-23 -204q0 -1 -0.5 -6t-1 -8.5t-1.5 -7.5t-3.5 -6.5t-6.5 -2.5t-6.5 2.5t-3.5 6.5t-1 7.5t-0.5 8.5t-0.5 6z"/>
<glyph glyph-name="parenleft" horiz-adv-x="380" unicode="(" d="M291 -228l-14 -14q-99 99 -156 223t-57 257q0 134 57.5 257.5t155.5 222.5l14 -13q-85 -108 -125 -220t-40 -247t40 -246.5t125 -219.5z"/>
<glyph glyph-name="parenright" horiz-adv-x="380" unicode=")" d="M89 704l14 14q99 -99 156 -223t57 -257q0 -134 -57.5 -257.5t-155.5 -222.5l-14 13q85 108 125 220t40 247t-40 246.5t-125 219.5z"/>
<glyph glyph-name="asterisk" horiz-adv-x="540" unicode="*" d="M444 525l-154 -20l114 -107l-66 -48l-67 142l-67 -142l-66 48l114 107l-155 20l25 77l137 -75l-29 153h81l-29 -153l137 75z"/>
<glyph glyph-name="plus" d="M59 248h194v194h54v-194h194v-54h-194v-194h-54v194h-194v54z" unicode="+"/>
<glyph glyph-name="comma" horiz-adv-x="280" unicode="," d="M103 -206l-9 16q93 62 93 132q0 21 -7 35t-19.5 20t-20.5 8t-19 3q-51 6 -51 42q0 22 17 34t41 12q51 0 83 -38.5t32 -90.5q0 -98 -140 -173z"/>
<glyph glyph-name="hyphen" horiz-adv-x="360" unicode="-" d="M68 226v48h218v-48h-218z"/>
<glyph glyph-name="period" horiz-adv-x="280" unicode="." d="M148 -12q-22 0 -38 16t-16 38q0 23 16 39t38 16t38.5 -16.5t16.5 -38.5t-16 -38t-39 -16z"/>
<glyph glyph-name="slash" horiz-adv-x="640" unicode="/" d="M47 -217l-44 28l589 907l44 -28z"/>
<glyph glyph-name="zero" d="M406 342q0 40 -4.5 86t-16 104.5t-38.5 96t-66 37.5h-1q-39 0 -66.5 -38t-39.5 -96t-16.5 -104t-4.5 -86t4.5 -86.5t16.5 -105.5t39.5 -97.5t66.5 -38.5t66.5 38t39 97.5t16 105.5t4.5 87zM510 340q0 -58 -11.5 -115.5t-36.5 -112.5t-72 -89.5t-110 -34.5t-110.5 34 t-72.5 89t-36.5 112.5t-11.5 116.5q0 47 6.5 93t23.5 93.5t43 83.5t67 59t93 23q51 0 91.5 -23t65.5 -59.5t41.5 -84.5t23 -93.5t6.5 -91.5z" unicode="0"/>
<glyph glyph-name="one" d="M96 680h232q-7 -175 -7 -335q0 -105 1 -160q1 -89 12 -113q16 -37 83 -50q19 -4 46 -7v-15h-370v15q52 6 80 14.5t41.5 31t16 44.5t3.5 74v6v323q0 49 -2.5 70.5t-16 42.5t-41 29.5t-78.5 14.5v15z" unicode="1"/>
<glyph glyph-name="two" d="M503 187l-71 -187h-409l-6 14q338 269 338 460q0 58 -34 97t-91 39q-75 0 -162 -91l-15 12q38 70 92.5 115.5t123.5 45.5q82 0 132 -57.5t50 -139.5q0 -52 -26.5 -107.5t-79.5 -113t-90.5 -92.5t-101.5 -89q-9 -7 -13 -11h184q40 0 62.5 3.5t41.5 20t28.5 31.5t32.5 56z " unicode="2"/>
<glyph glyph-name="three" d="M149 300l-8 13q12 10 27 23t21.5 18t16 11.5t17 9.5t18.5 6l19 5q46 17 81 54t35 83q0 43 -32 68t-77 25q-82 0 -155 -78l-19 12q44 69 94 105.5t122 36.5q62 0 108.5 -38t46.5 -98q0 -34 -15 -62t-44 -50t-53 -35t-59 -29v-2q88 -9 142.5 -53.5t54.5 -124.5 q0 -90 -76.5 -151t-168.5 -61q-62 0 -118 29t-56 85q0 26 18 44t44 18q20 0 39 -11v-20q0 -46 29.5 -80t74.5 -34q57 0 93 44t36 102q0 67 -56.5 105.5t-127.5 38.5q-29 0 -72 -9z" unicode="3"/>
<glyph glyph-name="four" d="M299 564l-217 -288h217v288zM360 697l26 -12q-7 -119 -7 -254v-155h141v-65h-141v-41q0 -32 0.5 -45t4 -33.5t11 -29t21.5 -19.5t36 -17t54 -11v-15h-334v15q32 5 54 11t36 17t21.5 19.5t11 29t4 33.5t0.5 45v41h-287l-5 25z" unicode="4"/>
<glyph glyph-name="five" d="M149 598l-18 -197q66 19 115 19q100 0 164.5 -57t64.5 -156q0 -97 -71.5 -158t-169.5 -61q-35 0 -70 9.5t-64 34.5t-29 61q0 29 20 48.5t48 19.5q17 0 32 -7q-4 -15 -4 -32q0 -44 27.5 -74t77.5 -30q56 0 87 44.5t31 102.5q0 79 -43.5 125.5t-121.5 46.5q-67 0 -127 -37 l-8 3l33 377h191q65 0 81 7t37 45h13l-33 -134h-263z" unicode="5"/>
<glyph glyph-name="six" d="M173 383q-26 -68 -26 -157q0 -48 13.5 -93t48 -79.5t84.5 -34.5q33 0 57.5 17.5t37.5 45.5t19 57.5t6 60.5q0 83 -44.5 139.5t-124.5 56.5q-36 0 -71 -13zM455 696l9 -15q-206 -110 -281 -276q77 28 126 28q91 0 149.5 -59t58.5 -150q0 -102 -70.5 -169t-173.5 -67 q-104 0 -167 70.5t-63 175.5q0 85 35 161t95 132.5t130.5 98t151.5 70.5z" unicode="6"/>
<glyph glyph-name="seven" d="M149 -12h-69l369 610h-232q-29 0 -47.5 -2.5t-30.5 -4t-23 -12.5t-15.5 -16.5t-19 -28.5t-22.5 -36l-15 4l50 178h435l8 -6z" unicode="7"/>
<glyph glyph-name="eight" d="M216 347l-10 7q-32 24 -46.5 36t-37.5 36t-32.5 49t-9.5 55q0 77 61.5 119.5t141.5 42.5q73 0 130 -37.5t57 -107.5q0 -33 -10 -58.5t-34 -48t-41 -34.5t-52 -33l9 -7q40 -30 54 -42t41 -40.5t37.5 -56.5t10.5 -63q0 -81 -66 -128.5t-150 -47.5q-85 0 -150.5 44 t-65.5 125q0 65 44.5 109t118.5 81zM319 383q63 57 63 146q0 58 -31 97.5t-87 39.5q-41 0 -68.5 -28.5t-27.5 -69.5q0 -21 8 -41.5t17 -34.5t28.5 -32.5t30 -27t36 -26.5t31.5 -23zM232 336q-40 -27 -65.5 -71t-25.5 -90q0 -64 40.5 -112.5t103.5 -48.5q48 0 80 35t32 83 q0 28 -9 52.5t-31 48.5t-35 35.5t-48 37t-42 30.5z" unicode="8"/>
<glyph glyph-name="nine" d="M261 666q-65 0 -99.5 -53.5t-34.5 -122.5q0 -96 49.5 -143.5t107.5 -47.5q63 0 98 35q13 44 13 115q0 48 -10.5 94t-42.5 84.5t-81 38.5zM79 -25l-7 19q102 47 183 127.5t116 180.5q-73 -43 -145 -43q-85 0 -144 57t-59 142q0 103 72 168.5t176 65.5q102 0 165 -67 t63 -169q0 -176 -119.5 -301.5t-300.5 -179.5z" unicode="9"/>
<glyph glyph-name="colon" horiz-adv-x="280" unicode=":" d="M148 -12q-22 0 -38 16t-16 38q0 23 16 39t38 16t38.5 -16.5t16.5 -38.5t-16 -38t-39 -16zM148 327q-22 0 -38 15.5t-16 38.5t16 39t38 16t38.5 -16t16.5 -39q0 -22 -16 -38t-39 -16z"/>
<glyph glyph-name="semicolon" horiz-adv-x="280" unicode=";" d="M148 327q-22 0 -38 15.5t-16 38.5t16 39t38 16t38.5 -16t16.5 -39q0 -22 -16 -38t-39 -16zM103 -206l-9 16q93 62 93 132q0 21 -7 35t-19.5 20t-20.5 8t-19 3q-51 6 -51 42q0 22 17 34t41 12q51 0 83 -38.5t32 -90.5q0 -98 -140 -173z"/>
<glyph glyph-name="less" d="M65 200v53l430 191v-63l-352 -155l352 -165v-63z" unicode="&lt;"/>
<glyph glyph-name="equal" d="M58 182h443v-54h-443v54zM58 314h443v-54h-443v54z" unicode="="/>
<glyph glyph-name="greater" d="M495 242v-53l-430 -191v63l352 155l-352 165v63z" unicode="&gt;"/>
<glyph glyph-name="question" horiz-adv-x="360" unicode="?" d="M127 -12q-23 0 -38.5 16t-15.5 38q0 23 16 39t38 16q23 0 39 -16.5t16 -38.5t-16 -38t-39 -16zM115 166h-19l-8 110v11q0 34 17 52.5t41 24.5t48 10t41 16t17 36t-22.5 44.5t-60 42t-51.5 34.5q-24 23 -24 59q0 28 17 86l17 -4q1 -22 11 -38.5t16 -21t34 -23.5 q50 -35 61 -50q26 -33 26 -120q0 -57 -10.5 -90t-26 -42.5t-35 -15t-36.5 -7t-30.5 -18.5t-17.5 -51z"/>
<glyph glyph-name="at" horiz-adv-x="700" unicode="@" d="M475 491l13 43h78l-88 -259q-24 -69 -24 -85q0 -26 24 -26q56 0 114.5 73t58.5 165q0 105 -81.5 177.5t-187.5 72.5q-125 0 -210 -89t-85 -218q0 -134 82.5 -225.5t210.5 -91.5q80 0 153 43.5t110 114.5h40q-34 -89 -120 -143.5t-184 -54.5q-144 0 -243 103.5t-99 249.5 q0 144 99.5 247.5t240.5 103.5q130 0 222 -82t92 -212q0 -98 -69 -182t-155 -84q-28 0 -51 14t-26 40q-51 -53 -114 -53q-52 0 -82 39t-30 93q0 62 25 125.5t76.5 110t114.5 46.5q32 0 59.5 -14t35.5 -42zM403 284l46 136q7 20 7 42q0 59 -55 59q-45 0 -85.5 -60.5t-60 -130 t-19.5 -113.5q0 -25 15 -41t39 -16q71 0 113 124z"/>
<glyph glyph-name="A" horiz-adv-x="680" unicode="A" d="M411 331l-104 260l-94 -260h198zM424 285h-228q-1 -4 -21 -57.5t-30 -88t-10 -56.5q0 -15 6 -26t13 -17t22 -11t22.5 -6.5t27 -4t23.5 -3.5v-15h-274v15q63 17 83.5 38t45.5 84l113 295l60 163q15 41 15 52q0 10 -4 17q42 17 73 54l220 -586q22 -59 44.5 -82.5 t79.5 -34.5v-15h-294v15q23 5 36.5 10t27 19t13.5 35q0 10 -3.5 26t-7 30t-12 37.5t-13 36.5t-15 40t-13.5 36z"/>
<glyph glyph-name="B" horiz-adv-x="660" unicode="B" d="M373 361v-2q222 -51 222 -181q0 -40 -14.5 -71.5t-40 -50t-53 -31t-61.5 -18t-56.5 -7.5t-45.5 -2h-18l-275 2v15q30 4 50.5 9t34.5 14.5t21 17.5t11 28t5 34t2 46v347q-1 38 -2.5 54.5t-7.5 37t-18.5 28.5t-33.5 15.5t-56 12.5v15l203 8q5 0 16.5 0.5t17.5 0.5 q276 0 276 -166q0 -111 -177 -156zM243 339v-166v-21q0 -32 2.5 -51t11 -40t29.5 -30.5t54 -9.5q66 0 107 39.5t41 105.5q0 24 -11 52.5t-33 57t-61.5 47t-88.5 18.5h-12zM243 659v-299q39 0 72.5 6.5t66 21t51 44t18.5 70.5q0 57 -32 93.5t-76 50t-100 13.5z"/>
<glyph glyph-name="C" horiz-adv-x="740" unicode="C" d="M676 638v-164h-15q-15 89 -66.5 141.5t-138.5 52.5q-132 0 -209 -93.5t-77 -228.5q0 -142 91 -238t205 -96q47 0 83.5 15.5t63.5 47t44 62.5t37 79l14 -6q-17 -88 -55 -179q-89 -43 -204 -43q-107 0 -195 38.5t-144 118.5t-56 189q0 68 26.5 131.5t75.5 114.5t127.5 81.5 t173.5 30.5q128 0 219 -54z"/>
<glyph glyph-name="D" horiz-adv-x="820" unicode="D" d="M243 662v-508q0 -30 4 -49.5t17 -40t42 -31t73 -10.5q47 0 91.5 15.5t86 48.5t67 94t25.5 142q0 87 -32 153.5t-88.5 106t-128 59.5t-154.5 20h-3zM37 660v14l242 8q6 0 17.5 0.5t16.5 0.5q84 0 153 -14t115 -36.5t81 -54t54 -62t30.5 -66t15 -61.5t3.5 -51 q0 -46 -11.5 -90t-42 -90.5t-77 -81t-123.5 -56.5t-174 -22h-8l-298 2v15q30 4 50.5 9t34.5 14.5t21 17.5t11 28t5 34t2 46v347q-1 32 -2 46t-4.5 34t-10.5 28t-20.5 17.5t-32.5 14.5t-48 9z"/>
<glyph glyph-name="E" horiz-adv-x="660" unicode="E" d="M31 0v15q30 4 50.5 9t34.5 14.5t21 17.5t11 28t5 34t2 46v352q-1 32 -2 46t-5 34t-11 28t-21 17.5t-34.5 14.5t-50.5 9v15h537l-12 -154h-15q-2 31 -9.5 54t-24 37t-31 22.5t-41.5 11.5t-44.5 4t-50.5 1h-97v-285h104q67 0 101 16.5t42 75.5h15v-223h-15q-4 26 -13.5 43 t-20 26t-31 13.5t-35 5.5t-43.5 1h-104v-164v-27q0 -25 4 -41.5t18 -35t46 -28t82 -9.5q95 0 144.5 40t68.5 134h15q-1 -100 -34 -198h-556z"/>
<glyph glyph-name="F" horiz-adv-x="580" unicode="F" d="M480 460h15v-244h-15q-3 35 -12.5 56t-30 30t-38.5 11t-54 2h-9h-109v-151q0 -46 2.5 -66.5t17.5 -39.5t42.5 -27t81.5 -16v-15h-356v15q30 4 50.5 9t34.5 14.5t21 17.5t11 28t5 34t2 46v352q-1 32 -2 46t-5 34t-11 28t-21 17.5t-34.5 14.5t-50.5 9v15h529l-16 -158h-15 q-2 38 -13.5 63.5t-26.5 39.5t-43.5 21t-51 8.5t-60.5 1.5h-91v-299h109q72 0 105 18.5t39 84.5z"/>
<glyph glyph-name="G" horiz-adv-x="780" unicode="G" d="M688 77h49v-15q-92 -39 -158 -56.5t-144 -17.5q-161 0 -271 92.5t-110 251.5q0 107 57.5 190.5t148.5 126.5t197 43q117 0 234 -39l-4 -174h-13q-19 88 -78 138.5t-148 50.5q-127 0 -202.5 -85t-75.5 -214q0 -149 96 -248t244 -99q23 0 38.5 1.5t25.5 7.5t15 10.5t7.5 18 t3 22t0.5 29.5v60q0 80 -25.5 103t-109.5 33v15h296v-15q-49 -10 -61 -31t-12 -73v-126z"/>
<glyph glyph-name="H" horiz-adv-x="880" unicode="H" d="M239 329v-165q0 -33 0.5 -48.5t5 -34.5t12 -26.5t23 -16.5t37 -13.5t55.5 -9.5v-15h-345v15q30 4 50.5 9t34.5 14.5t21 17.5t11 28t5 34t2 46v352q-1 32 -2 46t-5 34t-11 28t-21 17.5t-34.5 14.5t-50.5 9v15h345v-15q-34 -5 -55.5 -9.5t-37 -13.5t-23 -16.5t-12 -26.5 t-5 -34.5t-0.5 -48.5v-145h402v145q0 33 -0.5 48.5t-5 34.5t-12 26.5t-23 16.5t-37 13.5t-55.5 9.5v15h345v-15q-30 -4 -50.5 -9t-34.5 -14.5t-21 -17.5t-11 -28t-5 -34t-2 -46v-352q1 -32 2 -46t5 -34t11 -28t21 -17.5t34.5 -14.5t50.5 -9v-15h-345v15q34 5 55.5 9.5 t37 13.5t23 16.5t12 26.5t5 34.5t0.5 48.5v165h-402z"/>
<glyph glyph-name="I" horiz-adv-x="400" unicode="I" d="M244 516v-352q1 -32 2 -46t5 -34t11 -28t21 -17.5t34.5 -14.5t50.5 -9v-15h-336v15q30 4 50.5 9t34.5 14.5t21 17.5t11 28t5 34t2 46v352q-1 32 -2 46t-5 34t-11 28t-21 17.5t-34.5 14.5t-50.5 9v15h336v-15q-30 -4 -50.5 -9t-34.5 -14.5t-21 -17.5t-11 -28t-5 -34 t-2 -46z"/>
<glyph glyph-name="J" horiz-adv-x="400" unicode="J" d="M171 202v314q0 33 -0.5 48.5t-5 34.5t-12 26.5t-23 16.5t-37 13.5t-55.5 9.5v15h344v-15q-37 -5 -59 -12.5t-36 -16.5t-19.5 -28.5t-7 -37t-1.5 -54.5v-358v-11q0 -75 -6.5 -116t-33.5 -78.5t-71 -63t-128 -61.5l-8 17q43 20 73 47t46.5 55.5t25.5 71.5t11.5 82t2.5 101z "/>
<glyph glyph-name="K" horiz-adv-x="700" unicode="K" d="M437 680h259v-15q-27 -3 -55 -14t-46.5 -21t-46.5 -34.5t-39 -35t-41 -43t-36 -38.5l-94 -100l203 -224q110 -120 222 -152l-5 -15q-135 11 -181.5 29t-114.5 93l-204 222l161 175q74 84 74 120q0 31 -56 38v15zM244 516v-352q1 -32 2 -46t5 -34t12 -28t23 -17.5 t36.5 -14.5t54.5 -9v-15h-345v15q30 4 50.5 9t34.5 14.5t21 17.5t11 28t5 34t2 46v352q-1 32 -2 46t-5 34t-11 28t-21 17.5t-34.5 14.5t-50.5 9v15h318v-15q-72 -11 -88 -37.5t-18 -111.5z"/>
<glyph glyph-name="L" horiz-adv-x="640" unicode="L" d="M31 0v15q30 4 50.5 9t34.5 14.5t21 17.5t11 28t5 34t2 46v352q-1 32 -2 46t-5 34t-11 28t-21 17.5t-34.5 14.5t-50.5 9v15h336v-15q-45 -6 -70 -14.5t-37 -28.5t-14.5 -40.5t-2.5 -65.5v-328q0 -103 15 -151l122 -9q28 -2 39 -2q35 0 62 7.5t43.5 16t38.5 35.5t32.5 43.5 t38.5 63.5l13 -6l-57 -186h-559z"/>
<glyph glyph-name="M" horiz-adv-x="960" unicode="M" d="M295 570l190 -424l181 398q28 63 28 93q0 20 -11 27l2 16h220v-15q-50 -10 -74.5 -31.5t-24.5 -65.5v-10l22 -364q3 -35 4 -47.5t4 -36t6 -30t9 -20.5t13.5 -17.5t19.5 -11t26.5 -10t35.5 -6.5v-15h-329v15q27 4 41 7t32.5 9.5t27 16t14.5 25.5t6 39v12l-27 437h-2 l-255 -561h-11l-237 538h-2q-21 -203 -31 -419v-13q0 -33 23.5 -56t96.5 -35v-15h-279v15q33 5 53 15.5t31.5 30.5t16.5 38t11 55l37 281l13 136v9q0 75 -110 85v15h216l1 -11q-8 -8 -8 -26q0 -25 20 -73z"/>
<glyph glyph-name="N" horiz-adv-x="820" unicode="N" d="M181 680l494 -523l-5 365q-1 72 -28.5 100t-111.5 43v15h273v-15q-48 -6 -65.5 -31.5t-24.5 -80.5q-9 -69 -9 -236q0 -146 5 -333l-13 -3q-71 84 -155.5 175t-190 200.5t-161.5 170.5v-184v-53q0 -44 0.5 -69t2.5 -55t5.5 -45.5t10.5 -33.5t17 -27t25 -19t33.5 -15.5 t44.5 -10.5v-15h-299v15q24 2 42 7.5t31.5 16t23 21.5t16 31.5t10 38t5 49t2 56.5t0.5 68v45v150q0 80 -26 113.5t-117 53.5v15h165z"/>
<glyph glyph-name="O" horiz-adv-x="840" unicode="O" d="M411 668q-62 0 -110 -28t-75.5 -73.5t-41.5 -97t-14 -104.5q0 -60 16 -120.5t47 -113.5t83 -86t116 -33q78 0 134 49t80 117.5t24 144.5q-2 138 -75 241.5t-184 103.5zM419 692q93 0 165 -29.5t115 -80t65 -112t22 -130.5q0 -159 -103 -255.5t-263 -96.5 q-161 0 -263.5 96.5t-102.5 256.5q0 158 103 254.5t262 96.5z"/>
<glyph glyph-name="P" horiz-adv-x="600" unicode="P" d="M37 659v15l218 8q5 0 15 0.5t14 0.5q75 0 131.5 -16t84.5 -38t45.5 -50.5t21 -47t3.5 -34.5q0 -50 -23 -88.5t-62 -61t-81 -35.5t-90 -18l-3 15q157 24 157 161q0 91 -64.5 139.5t-158.5 48.5h-3v-494q0 -33 0.5 -48.5t5 -34.5t12 -26.5t23 -16.5t37 -13.5t55.5 -9.5v-15 h-345v15q30 4 50.5 9t34.5 14.5t21 17.5t11 28t5 34t2 46v310q0 43 -0.5 61.5t-4 44.5t-10 36t-20 22t-33 15.5t-49.5 5.5z"/>
<glyph glyph-name="Q" horiz-adv-x="840" unicode="Q" d="M688 -199q-60 0 -116 30.5t-126 82.5t-123 78l-49 24q-20 9 -28.5 13.5t-35.5 21.5t-43.5 32t-40.5 43t-37.5 57t-24 71.5t-10.5 89.5q0 156 105 252t262 96q156 0 263 -95t107 -250q0 -142 -86.5 -239t-227.5 -117l197 -103q68 -35 185 -39v-15q-140 -33 -171 -33z M417 668q-62 0 -110.5 -27.5t-77.5 -72.5t-44 -99.5t-15 -112.5q0 -136 76 -240t188 -104q78 0 134.5 48t81.5 116.5t25 144.5q0 85 -30 163.5t-90.5 131t-137.5 52.5z"/>
<glyph glyph-name="R" horiz-adv-x="700" unicode="R" d="M154 164v310q0 53 -1.5 78.5t-7 49.5t-19.5 33t-33.5 15.5t-55.5 9.5v14l244 8h23q65 0 113.5 -13t73.5 -31t40 -42.5t18.5 -41.5t3.5 -35q0 -109 -124 -164l5 -7q33 -58 50 -86t54 -80.5t67 -81t75 -56t92 -37.5l-3 -15q-8 0 -37.5 1.5t-37.5 2t-32 2.5t-33 4.5t-27 7 t-28.5 10.5t-23 14.5t-23.5 19.5q-84 88 -139 200q-14 30 -31 44.5t-29 17.5t-40.5 4.5t-45.5 4.5v-161q0 -33 0.5 -48.5t5 -34.5t12.5 -26.5t24.5 -16.5t38.5 -13.5t58 -9.5v-15h-351v15q30 4 50.5 9t34.5 14.5t21 17.5t11 28t5 34t2 46zM242 661v-319q38 0 73.5 9.5 t66.5 27t49.5 48.5t18.5 71q0 81 -59.5 122t-145.5 41h-3z"/>
<glyph glyph-name="S" horiz-adv-x="520" unicode="S" d="M439 654l-8 -150h-16q-15 75 -44.5 117t-96.5 42q-49 0 -83 -31t-34 -79q0 -47 32.5 -84t78.5 -63t92.5 -53.5t79 -70t32.5 -98.5q0 -61 -37.5 -107t-91.5 -67.5t-114 -21.5q-97 0 -176 51l-29 170h18q21 -80 73 -135.5t129 -55.5q57 0 94.5 32.5t37.5 89.5 q0 49 -31.5 86t-76.5 62t-90 50.5t-76.5 67t-31.5 96.5q0 84 68.5 137.5t154.5 53.5q75 0 146 -39z"/>
<glyph glyph-name="T" horiz-adv-x="680" unicode="T" d="M631 702l10 9h8l14 -187l-14 -3q-10 37 -24.5 61t-29 38t-40.5 20.5t-48 8t-63 1.5h-60v-462q0 -43 2 -65t8.5 -44t22.5 -32.5t41 -18.5t66 -13v-15h-368v15q41 5 66 13t41 18.5t22.5 32.5t8.5 44t2 65v462h-60q-41 0 -63 -1.5t-48 -8t-40.5 -20.5t-29 -38t-24.5 -61 l-14 3l14 187h8l10 -9q17 -15 26 -18.5t29 -3.5h7h458h7q20 0 29 3.5t26 18.5z"/>
<glyph glyph-name="U" horiz-adv-x="840" unicode="U" d="M529 680h290v-15q-27 -3 -45 -12.5t-28.5 -22.5t-16.5 -40t-8 -52t-3 -71l-6 -219q-6 -260 -280 -260q-74 0 -127.5 17.5t-82 42.5t-45 62t-20.5 65.5t-4 64.5q0 11 0.5 28.5t0.5 23.5v224q-1 32 -2 46t-5 34t-11 28t-21 17.5t-34.5 14.5t-50.5 9v15h345v-15 q-34 -5 -55.5 -9.5t-37 -13.5t-23 -16.5t-12 -26.5t-5 -34.5t-0.5 -48.5v-205v-11q-1 -12 -1 -22q0 -28 3.5 -54.5t18.5 -63t39.5 -62.5t71.5 -45t110 -19q52 0 89.5 16.5t57.5 41t31.5 62.5t14.5 69t3 74q0 12 -0.5 33.5t-0.5 31.5v105q0 54 -4 83.5t-18.5 57t-45 40 t-82.5 17.5v15z"/>
<glyph glyph-name="V" horiz-adv-x="700" unicode="V" d="M449 680h282v-15q-26 -2 -47.5 -13.5t-36 -24.5t-32.5 -45.5t-28 -54.5t-32 -73l-9 -21l-191 -456h-14l-226 541q-13 33 -18 44t-19 35t-26 34t-32.5 20.5t-46.5 13.5v15h317v-15q-97 -10 -97 -67q0 -22 28 -90l160 -386l118 283q26 62 36 86.5t19.5 55t9.5 48.5 q0 31 -25.5 46t-89.5 24v15z"/>
<glyph glyph-name="W" horiz-adv-x="940" unicode="W" d="M458 533l-201 -556h-10l-163 559l-7.5 22.5l-7 21t-6.5 17t-8.5 16.5t-9.5 12.5t-12 12.5t-15 9.5t-20 9.5t-25 8v15h283v-15q-52 -8 -72.5 -24t-20.5 -42q0 -17 20 -85l105 -355l157 418q-14 43 -39 61t-74 27v15h292v-15q-50 -7 -70 -23t-20 -41q0 -16 12 -56l127 -396 l79 225q62 182 62 223q0 14 -5.5 24t-11.5 16t-21 11.5t-23.5 8t-29.5 6.5q-6 1 -9 2v15h261v-15q-77 -5 -111 -91l-70 -191l-147 -406h-11z"/>
<glyph glyph-name="X" horiz-adv-x="660" unicode="X" d="M399 665v15h251v-15q-31 -3 -55.5 -12t-41.5 -19.5t-36 -33.5t-31 -40.5t-35 -54.5l-80 -128l121 -210q24 -43 34 -58.5t32 -41t48 -36.5t62 -16v-15h-283v15q56 10 56 42q0 25 -53 117l-72 127q-6 -12 -37.5 -65.5t-53.5 -98.5t-22 -68q0 -33 60 -52q3 -1 5 -2v-15h-268 v15q34 3 61 12.5t44 18.5t36.5 32.5t28.5 36.5t31 48q5 7 7 11l94 150l-99 176q-2 4 -12 22.5t-13.5 23.5t-13 21.5t-14.5 22t-15.5 18.5t-17.5 18.5t-18.5 14.5t-22.5 12.5t-24.5 7t-27.5 4.5v15h278v-15q-57 -12 -57 -45q0 -19 26 -68l85 -151q5 8 27 44.5t37 61.5 t28.5 57.5t13.5 50.5q0 37 -63 50z"/>
<glyph glyph-name="Y" horiz-adv-x="600" unicode="Y" d="M370 680h257v-15q-61 -5 -99 -36t-73 -91l-118 -234v-113q1 -42 2.5 -61.5t8 -43.5t20.5 -34.5t38 -20.5t63 -16v-15h-352v15q39 6 63 16t38 20.5t20.5 34.5t8 43.5t2.5 61.5v80l-104 227q-38 85 -60 111q-39 48 -106 56v15h276v-15q-63 -8 -63 -42q0 -19 24 -72 l100 -216l87 165q40 74 40 111q0 24 -17.5 36.5t-55.5 17.5v15z"/>
<glyph glyph-name="Z" horiz-adv-x="700" unicode="Z" d="M68 483l16 197h531l5 -7l-443 -643h95q185 0 258 30q56 23 85 73t45 122l15 -3q-13 -144 -58 -252h-576l-4 7l66 90l381 553h-94h-15q-155 0 -202 -21q-65 -30 -89 -146h-16z"/>
<glyph glyph-name="bracketleft" horiz-adv-x="400" unicode="[" d="M312 718v-23l-156 -10v-852l156 -10v-23h-224q3 230 3 459t-3 459h224z"/>
<glyph glyph-name="backslash" horiz-adv-x="280" unicode="\" d="M330 -200l-48 -17l-332 918l48 17z"/>
<glyph glyph-name="bracketright" horiz-adv-x="400" unicode="]" d="M88 -200v23l156 10v852l-156 10v23h224q-3 -230 -3 -459t3 -459h-224z"/>
<glyph glyph-name="asciicircum" d="M148 357h-57l164 323h52l161 -323h-56l-132 262z" unicode="^"/>
<glyph glyph-name="underscore" horiz-adv-x="500" unicode="_" d="M0 -75h500v-50h-500v50z"/>
<glyph glyph-name="grave" horiz-adv-x="340" unicode="`" d="M95 716l149 -207l-14 -12l-182 170z"/>
<glyph glyph-name="a" horiz-adv-x="440" unicode="a" d="M47 148l221 100q1 12 1 33q0 64 -23.5 92.5t-76.5 28.5q-39 0 -50.5 -14.5t-11.5 -47.5v-26l-50 -3q-23 0 -23 10q0 14 30 45t77 58.5t84 27.5q120 0 120 -150v-142v-28q0 -52 14 -70t73 -30v-15q-76 -22 -101 -22q-55 0 -63 63q-60 -68 -127 -68q-46 0 -73 33.5 t-27 80.5q0 21 6 44zM268 228l-135 -69q-7 -23 -7 -40q0 -33 18.5 -56t51.5 -23q37 0 72 37v151z"/>
<glyph glyph-name="b" d="M166 380v-177q0 -41 3.5 -68.5t15.5 -56t38.5 -43t68.5 -14.5q23 0 46 9.5t46 29.5t37.5 57.5t14.5 86.5q0 88 -51 143t-126 55q-41 0 -93 -22zM89 30v543q0 35 -7 50.5t-42 40.5v10l115 44l11 -4v-318q102 56 167 56q81 0 134.5 -63t53.5 -145q0 -63 -27 -114t-69 -80 t-88 -44.5t-89 -15.5q-69 0 -159 40z" unicode="b"/>
<glyph glyph-name="c" horiz-adv-x="440" unicode="c" d="M404 88l12 -15q-73 -83 -176 -83q-89 0 -147.5 64.5t-58.5 154.5q0 103 76.5 173t180.5 70q109 0 109 -50q0 -17 -15 -31.5t-32 -14.5q-16 0 -55 32.5t-66 32.5q-55 0 -86.5 -51t-31.5 -110q0 -94 55 -152.5t132 -58.5q49 0 103 39z"/>
<glyph glyph-name="d" d="M387 109v171q0 41 -14 70.5t-36.5 44t-43.5 20.5t-41 6q-65 0 -99 -53.5t-34 -121.5q0 -100 48.5 -153t111.5 -53q29 0 60 21t48 48zM552 19l-165 -37v95q-89 -87 -165 -87q-78 0 -133 64t-55 144q0 112 78.5 183t191.5 71q44 0 83 -10v131q0 35 -7 50.5t-42 40.5v10 l115 44l11 -4v-586q0 -27 0.5 -38.5t2.5 -26t6.5 -19.5t12.5 -8.5t21 -3.5q7 0 41 4z" unicode="d"/>
<glyph glyph-name="e" horiz-adv-x="460" unicode="e" d="M123 305l-4 -50q0 -3 -0.5 -8t-0.5 -8q0 -76 49.5 -130.5t127.5 -54.5q71 0 118 63l15 -11q-30 -51 -79 -83.5t-105 -32.5q-91 0 -150.5 65t-59.5 157q0 99 63 169.5t162 70.5q68 0 109.5 -40t44.5 -107h-290zM126 324l192 8q-8 40 -30.5 69t-59.5 29q-39 0 -66 -31.5 t-36 -74.5z"/>
<glyph glyph-name="f" horiz-adv-x="300" unicode="f" d="M19 390v10l81 47q2 103 40 164q30 48 75.5 77.5t97.5 29.5q23 0 47.5 -5.5t46.5 -22t22 -40.5q0 -42 -52 -42h-3q-56 79 -110 79q-87 0 -87 -195v-60h130v-42h-130v-274q0 -62 14 -77.5t82 -23.5v-15h-253v15q55 8 67 24t13 77v274h-81z"/>
<glyph glyph-name="g" horiz-adv-x="540" unicode="g" d="M224 71l128 5h13q73 0 113 -29.5t40 -78.5q0 -77 -91.5 -143.5t-219.5 -66.5q-81 0 -124.5 32.5t-43.5 69.5q0 33 22.5 61t41.5 40t59 33q7 4 11 6q-36 5 -69 25t-33 51q0 29 76 88q-82 46 -82 128q0 73 56.5 116.5t131.5 43.5q61 0 131 -32h143v-42l-122 3 q20 -36 20 -78q0 -73 -55.5 -116.5t-130.5 -43.5q-40 0 -75 13q-20 -18 -20 -41q0 -19 17.5 -31.5t53.5 -12.5h9zM303 6l-98 -6q-34 -15 -63.5 -42.5t-29.5 -57.5q0 -34 30 -56t64.5 -29.5t67.5 -7.5q41 0 80.5 10.5t71.5 39.5t32 70q0 80 -121 80q-9 0 -20.5 -0.5 t-13.5 -0.5zM255 165q46 0 65.5 36.5t19.5 87.5q0 56 -26 98.5t-78 42.5q-44 0 -65 -36.5t-21 -84.5q0 -68 33 -106t72 -38z"/>
<glyph glyph-name="h" d="M169 366v-250q0 -62 11.5 -77.5t66.5 -23.5v-15h-233v15q54 8 65.5 24.5t12.5 76.5v457q0 35 -7 50.5t-42 40.5v10l115 44l11 -4v-328q83 48 121 59q26 7 51 7q34 0 59 -11.5t37.5 -26.5t19.5 -39t8.5 -41t1.5 -40v-178q0 -62 11.5 -77.5t66.5 -23.5v-15h-233v15 q54 8 65.5 24.5t12.5 76.5v115v10q0 27 -1 44t-7.5 41t-18.5 38.5t-35.5 25t-56.5 10.5q-49 0 -102 -34z" unicode="h"/>
<glyph glyph-name="i" horiz-adv-x="260" unicode="i" d="M121 692q21 0 36 -15t15 -36t-15 -36t-36 -15t-36 15t-15 36t15 36t36 15zM242 0h-233v15q54 8 65.5 24.5t12.5 76.5v191q0 25 -2 35.5t-15 24t-44 31.5v10l127 44l11 -4v-332q0 -62 11.5 -77.5t66.5 -23.5v-15z"/>
<glyph glyph-name="j" horiz-adv-x="260" unicode="j" d="M138 692q21 0 36 -15t15 -36t-15 -36t-36 -15t-36 15t-15 36t15 36t36 15zM103 58v237v25t-3 18t-4.5 12t-10 8.5t-13.5 7.5t-21 8.5t-27 11.5v10l145 56l11 -4v-424v-7q0 -125 -39.5 -181t-160.5 -95l-6 16q32 16 54 31t36.5 36.5t22 38t11.5 51t4.5 59t0.5 77.5v8z"/>
<glyph glyph-name="k" horiz-adv-x="500" unicode="k" d="M238 433l234 15v-15q-76 -14 -121.5 -48t-112.5 -110l134 -153q80 -86 136 -111v-11q-54 -7 -68 -7q-22 0 -45 9t-46 28.5t-41 36.5t-40.5 47t-34 45.5t-32.5 47t-25 36.5q15 19 35 42t30 35t20.5 26t15 23t4.5 16q0 20 -43 33v15zM164 714v-598q0 -62 11.5 -77.5 t66.5 -23.5v-15h-233v15q54 8 65.5 24.5t12.5 76.5v457q0 35 -7 50.5t-42 40.5v10l115 44z"/>
<glyph glyph-name="l" horiz-adv-x="260" unicode="l" d="M242 0h-233v15q54 8 65.5 24.5t12.5 76.5v457q0 35 -7 50.5t-42 40.5v10l115 44l11 -4v-598q0 -62 11.5 -77.5t66.5 -23.5v-15z"/>
<glyph glyph-name="m" horiz-adv-x="840" unicode="m" d="M170 350v-234q0 -62 10.5 -77.5t59.5 -23.5v-15h-220v15q50 8 61 24.5t12 76.5v191q0 35 -7 50.5t-42 40.5v10l119 44l11 -4l-8 -77q93 81 166 81q40 0 74.5 -22t47.5 -59q95 81 166 81q131 0 131 -164q0 -9 -0.5 -22.5t-0.5 -18.5v-131q0 -62 10.5 -77.5t59.5 -23.5v-15 h-220v15q50 8 61 24.5t12 76.5v106q0 3 0.5 14t0.5 19q0 145 -114 145q-53 0 -100 -49v-235q0 -62 10.5 -77.5t59.5 -23.5v-15h-220v15q50 8 61 24.5t12 76.5v106v31q0 28 -3 49t-13.5 46t-34.5 38.5t-61 13.5q-53 0 -101 -50z"/>
<glyph glyph-name="n" d="M92 116v191q0 35 -7 50.5t-42 40.5v10l119 44l11 -4l-8 -73q51 38 91.5 57.5t84.5 19.5q34 0 59 -11.5t37.5 -26.5t19.5 -39t8.5 -41t1.5 -40v-178q0 -62 11.5 -77.5t66.5 -23.5v-15h-233v15q54 8 65.5 24.5t12.5 76.5v115v10q0 27 -1 44t-7.5 41t-18.5 38.5t-35.5 25 t-56.5 10.5q-55 0 -102 -43v-241q0 -62 11.5 -77.5t66.5 -23.5v-15h-233v15q54 8 65.5 24.5t12.5 76.5z" unicode="n"/>
<glyph glyph-name="o" d="M433 213q0 50 -15 97.5t-51.5 83.5t-87.5 36t-87 -32.5t-50.5 -77t-14.5 -94.5q0 -79 42.5 -146.5t117.5 -67.5q47 0 82 33t49.5 77.5t14.5 90.5zM526 223q0 -100 -72.5 -166.5t-173.5 -66.5q-106 0 -176 62.5t-70 166.5q0 102 72 167.5t175 65.5q105 0 175 -63t70 -166z " unicode="o"/>
<glyph glyph-name="p" horiz-adv-x="540" unicode="p" d="M150 373v-205q0 -21 1.5 -36.5t8 -38t19 -37t37 -25t58.5 -10.5q46 0 79 30.5t46.5 71.5t13.5 86q0 53 -18.5 93t-47 60.5t-55 30t-48.5 9.5q-51 0 -94 -29zM150 -7v-119q0 -63 15.5 -78t93.5 -23v-15h-259v15q50 8 61 24.5t12 76.5v433q0 35 -7 50.5t-42 40.5v10l119 48 l11 -4l-4 -61q88 61 159 61q83 0 136 -62.5t53 -146.5q0 -97 -77.5 -175t-191.5 -78h-12z"/>
<glyph glyph-name="q" d="M393 64v197q0 72 -34.5 116t-101.5 44q-66 0 -101 -55.5t-35 -126.5q0 -91 53 -145t133 -54q51 0 86 24zM470 452v-578q1 -60 12 -76.5t61 -24.5v-15h-251v15q72 8 86.5 23.5t14.5 77.5v172q-83 -56 -155 -56q-89 0 -145.5 62t-56.5 152q0 104 82.5 176t187.5 72 q74 0 133 -45l22 45h9z" unicode="q"/>
<glyph glyph-name="r" horiz-adv-x="360" unicode="r" d="M164 217v-101q0 -62 14.5 -77.5t85.5 -23.5v-15h-250v15q50 8 61 24.5t12 76.5v191q0 35 -7 50.5t-42 40.5v10l119 44l11 -4l-4 -118h2q19 46 58.5 84t82.5 38q22 0 36.5 -12.5t14.5 -33.5q0 -19 -16 -36t-36 -27q-44 33 -61 33h-3q-78 -7 -78 -146v-13z"/>
<glyph glyph-name="s" horiz-adv-x="360" unicode="s" d="M299 419l3 -89l-22 -4q-9 29 -18 48t-28.5 36.5t-46.5 17.5q-30 0 -48 -19.5t-18 -50.5q0 -28 21.5 -50.5t52 -38.5t60.5 -33t51.5 -44t21.5 -63q0 -63 -50.5 -101t-115.5 -38q-70 0 -122 37l-8 111l23 4q12 -54 41 -90t78 -36q34 0 55.5 22.5t21.5 56.5q0 31 -21.5 53.5 t-51.5 37.5t-60.5 31t-52 44.5t-21.5 67.5q0 56 43.5 89.5t100.5 33.5q63 0 111 -33z"/>
<glyph glyph-name="t" horiz-adv-x="340" unicode="t" d="M168 390v-214q0 -34 1 -50.5t6.5 -38.5t16.5 -31.5t32.5 -17t53.5 -7.5t59 7l4 -16q-84 -32 -158 -32q-60 0 -76 24.5t-16 82.5v21v272h-67l-5 7l140 139h9v-104h158v-42h-158z"/>
<glyph glyph-name="u" d="M463 442l-6 -331q0 -5 -0.5 -15t-0.5 -14q0 -22 8 -33.5t33 -11.5l46 4l4 -15l-170 -41l3 78q-101 -73 -181 -73q-32 0 -54.5 12t-33.5 26t-16.5 38.5t-6 36.5t-0.5 32v175v34q0 39 -13 54.5t-58 15.5h-3v15l151 13v-247v-26q0 -129 105 -129q61 0 110 44v215q0 31 -1 46 t-5.5 31.5t-14.5 22.5t-27 10.5t-44 4.5v15z" unicode="u"/>
<glyph glyph-name="v" horiz-adv-x="460" unicode="v" d="M296 442h174v-15h-3q-14 0 -27 -7t-21 -14.5t-18 -25t-14.5 -26.5t-13.5 -30.5t-11 -27.5l-131 -306h-17l-146 352q-2 4 -8.5 21t-8.5 20.5t-9.5 15t-13.5 15t-17 8t-25 5.5v15h207v-15q-56 0 -56 -30q0 -13 17 -55l101 -245l44 106q60 150 60 186q0 7 -2 12.5t-6.5 9 t-8 6t-11 4.5t-11.5 2.5t-13 2t-11 1.5v15z"/>
<glyph glyph-name="w" horiz-adv-x="720" unicode="w" d="M353 294l-125 -304h-15l-144 357q-21 49 -35 62q-18 16 -48 18v15h211v-15q-57 -1 -57 -32q0 -11 14 -49l96 -245l94 222q-27 68 -36 80q-15 18 -55 24v15h214v-15q-61 -3 -61 -33q0 -9 8 -33l98 -260q110 245 110 290q0 6 -1.5 11t-3.5 8t-6.5 6t-7 4.5t-9 2.5t-9 1.5 t-10.5 1.5t-9 1v15h169v-15q-20 -1 -34.5 -7.5t-26.5 -23.5t-16 -24t-16 -34l-156 -348h-14z"/>
<glyph glyph-name="x" horiz-adv-x="480" unicode="x" d="M268 250l79 -133q21 -36 31.5 -51t33.5 -31t56 -20v-15h-211v15q37 5 37 26q0 12 -18 44l-56 99q-1 -2 -23 -38t-35.5 -62.5t-13.5 -39.5q0 -23 30 -29v-15h-166v15q56 11 78 27.5t58 67.5l62 89l-78 131q-3 5 -10 17t-10 16.5t-9.5 14t-10.5 13.5l-11 11t-13.5 10t-15 7 t-18.5 5.5t-22 2.5v15h216v-15q-41 -4 -41 -26q0 -10 14 -36l56 -100q1 2 21.5 36t31.5 57.5t11 36.5q0 28 -32 32v15h167v-15q-30 -3 -45.5 -7.5t-34.5 -20.5q-29 -25 -108 -149z"/>
<glyph glyph-name="y" horiz-adv-x="460" unicode="y" d="M211 -27l-153 391q-15 36 -25.5 46.5t-46.5 16.5v15h207v-15q-54 -3 -54 -38q0 -17 18 -63l98 -254l62 180q34 99 34 128q0 22 -13 32.5t-42 14.5v15h175v-15q-31 -4 -46 -17t-31 -44l-42 -97l-154 -387q-28 -70 -50.5 -97t-52.5 -27q-20 0 -34.5 14.5t-14.5 35.5 q0 36 32 47q47 -28 53 -28t12.5 5.5t12 15t9 17.5t8 18.5t5.5 12.5z"/>
<glyph glyph-name="z" horiz-adv-x="480" unicode="z" d="M72 442h361l4 -7q-195 -265 -288 -409h69q46 0 68.5 1.5t52 8.5t44.5 21.5t29.5 41.5t24.5 68l17 -3l-39 -164h-375l-5 8q150 204 288 408h-26h-18q-122 0 -154 -15t-46 -89l-18 3z"/>
<glyph glyph-name="braceleft" horiz-adv-x="400" unicode="{" d="M169 -57v199q0 57 -15.5 80.5t-53.5 38.5q42 12 55.5 39.5t13.5 89.5v185q0 80 26.5 111.5t95.5 31.5h11v-2q-40 -14 -54.5 -41.5t-14.5 -81.5v-184q0 -66 -14.5 -101t-60.5 -46v-2q75 -9 75 -137v-198q0 -54 14.5 -81.5t54.5 -41.5v-2h-11q-69 0 -95.5 31.5t-26.5 111.5 z"/>
<glyph glyph-name="bar" horiz-adv-x="280" unicode="|" d="M113 -250v1000h54v-1000h-54z"/>
<glyph glyph-name="braceright" horiz-adv-x="400" unicode="}" d="M251 575v-199q0 -56 15.5 -79.5t53.5 -39.5q-42 -12 -55.5 -39.5t-13.5 -89.5v-185q0 -80 -26.5 -111.5t-95.5 -31.5h-11v2q40 14 54.5 41.5t14.5 81.5v184q0 66 14.5 101t60.5 46v2q-75 9 -75 137v198q0 54 -14.5 81.5t-54.5 41.5v2h11q69 0 95.5 -31.5t26.5 -111.5z "/>
<glyph glyph-name="asciitilde" d="M389 220q46 0 87 63l41 -25q-20 -29 -34 -45t-39 -30.5t-54 -14.5q-38 0 -102 31q-68 30 -112 30q-22 0 -40.5 -11t-29 -23.5t-24.5 -35.5l-40 27q30 46 60 70.5t76 24.5q35 0 110.5 -30.5t100.5 -30.5z" unicode="~"/>
<glyph glyph-name="uni00A0" horiz-adv-x="280" unicode=" "/>
<glyph glyph-name="exclamdown" horiz-adv-x="320" unicode="¡" d="M156 343q-22 0 -38 15.5t-16 38.5t16 39t38 16t38.5 -16t16.5 -39q0 -22 -16 -38t-39 -16zM149 235h19l36 -354l4 -63q0 -28 -12 -49t-37 -21q-26 0 -38 21t-12 49l4 63z"/>
<glyph glyph-name="cent" d="M300 129v417q-67 -5 -105 -65t-38 -131q0 -74 37.5 -139t105.5 -82zM324 663v-95q88 -4 141 -29l10 -115h-17q-40 118 -134 122v-417h4q96 0 140 127l17 -5l-27 -118q-76 -26 -129 -26h-5v-93h-24v93q-101 13 -164.5 70.5t-63.5 154.5t65 161t163 75v95h24z" unicode="¢"/>
<glyph glyph-name="sterling" d="M209 12l-117 39q-48 -35 -82 -35q-19 0 -30 10.5t-11 28.5q0 46 102 46h23q44 78 70 212h-94v30h102q12 70 32.5 131t53.5 115t82.5 85.5t110.5 31.5q43 0 77.5 -22.5t34.5 -63.5q0 -26 -17.5 -43.5t-44.5 -17.5q-14 0 -27 4q12 25 12 51q0 29 -14.5 49t-39.5 20 q-18 0 -34.5 -8t-31 -25.5t-26 -35t-22.5 -46.5t-18 -48t-15.5 -52t-12 -47.5t-10 -44.5t-7.5 -33h131v-30h-136q-30 -130 -114 -220l160 -36q11 -3 32 -8t34.5 -8.5t32 -6t34.5 -2.5q50 0 71 19.5t21 40.5q0 12 -17 30.5t-17 38.5q0 15 9 25.5t23 10.5q36 0 36 -56 q0 -67 -55.5 -117t-123.5 -50q-53 0 -167 38z" unicode="£"/>
<glyph glyph-name="currency" d="M279 148q67 0 112.5 46.5t45.5 114.5q0 69 -45 117t-112 48q-66 0 -112 -48t-46 -115t45.5 -115t111.5 -48zM67 125l50 50q-48 63 -48 138t48 133l-50 49l27 27l49 -49q64 49 142 49q79 0 131 -49l49 49l27 -27l-49 -49q47 -59 47 -134t-47 -137l49 -50l-27 -26l-49 49 q-57 -48 -135 -48q-79 0 -138 48l-49 -49z" unicode="¤"/>
<glyph glyph-name="yen" d="M322 403h140v-30h-157v-92h150v-30h-150v-61v-17q0 -43 3.5 -67t17 -45t40 -31t72.5 -15v-15h-349v15q32 5 54 11.5t37 18t22.5 22t11.5 32t5 39t1 52.5v61h-145v30h145v65l-12 27h-139v30h126l-48 102q-18 37 -22.5 47t-22 38t-30.5 38t-36 22t-51 15v15h273v-15 q-66 -11 -66 -46q0 -16 24 -68l69 -148l76 148q20 38 20 61q0 43 -75 53v15h256v-15q-61 -6 -100 -37t-69 -90z" unicode="¥"/>
<glyph glyph-name="brokenbar" horiz-adv-x="280" unicode="¦" d="M113 325v350h54v-350h-54zM113 -175v350h54v-350h-54z"/>
<glyph glyph-name="section" horiz-adv-x="540" unicode="§" d="M361 704q47 0 87 -25.5t40 -69.5q0 -26 -18 -46.5t-44 -20.5q-22 0 -38.5 15.5t-16.5 39.5q0 22 16 48q-2 1 -8 6t-8.5 6.5t-7.5 5t-8.5 5t-8.5 3.5t-10 2.5t-10 0.5q-38 0 -61 -31.5t-23 -71.5q0 -36 25.5 -77.5t62 -82.5t73.5 -85t62.5 -100t25.5 -114q0 -125 -96 -234 t-220 -109q-48 0 -84.5 24t-36.5 69q0 27 18 46t45 19q24 0 40 -16t16 -41q0 -20 -12 -43q19 -28 54 -28q36 0 60 29.5t24 66.5q0 38 -25 80.5t-60.5 84t-71.5 86t-61 100.5t-25 113q0 77 41.5 156.5t113.5 134t150 54.5zM173 546l2 37q-59 -56 -59 -152q0 -57 26.5 -113.5 t64 -102.5t75 -90.5t64 -93.5t26.5 -95q0 -21 -10 -59q66 62 66 163q0 60 -26.5 116t-64 100.5t-74.5 88t-63.5 95.5t-26.5 106z"/>
<glyph glyph-name="dieresis" horiz-adv-x="420" unicode="¨" d="M162 575q0 -20 -14 -34t-33 -14q-20 0 -34 14t-14 34t14 33.5t34 13.5q19 0 33 -14t14 -33zM353 575q0 -19 -14.5 -33.5t-33.5 -14.5t-33 14t-14 34q0 19 14 33t33 14q20 0 34 -14t14 -33z"/>
<glyph glyph-name="copyright" horiz-adv-x="760" unicode="©" d="M534 528v-112h-30q-3 50 -31.5 79.5t-77.5 29.5q-69 0 -105 -51t-36 -123q0 -74 39.5 -130.5t109.5 -56.5q72 0 116 73l26 -8q-19 -48 -67.5 -75t-102.5 -27q-91 0 -146 60t-55 152q0 98 58.5 158t154.5 60q62 0 147 -29zM386 28q125 0 209.5 91.5t84.5 221.5 q0 132 -85.5 221.5t-214.5 89.5q-125 0 -210 -91t-85 -220q0 -133 86 -223t215 -90zM379 -12q-142 0 -243 104t-101 247q0 145 101 249t244 104q146 0 248 -102.5t102 -250.5q0 -146 -103 -248.5t-248 -102.5z"/>
<glyph glyph-name="ordfeminine" horiz-adv-x="540" unicode="ª" d="M295 522l-93 -46q-4 -18 -4 -27q0 -22 12.5 -38t34.5 -16q25 0 50 25v102zM354 577v-95v-25q0 -34 10.5 -46t53.5 -22v-16q-7 -2 -23 -8t-28 -9t-24 -3q-42 0 -47 46q-42 -46 -90 -46q-36 0 -55.5 25.5t-19.5 62.5q0 14 5 31l159 72q0 28 -1.5 43t-8 31.5t-21 23.5 t-38.5 7q-27 0 -34 -11t-7 -41v-10l-40 -3q-19 0 -19 10q0 22 50 60t89 38q89 0 89 -115z"/>
<glyph glyph-name="guillemotleft" horiz-adv-x="500" unicode="«" d="M236 249l166 155q24 24 27 24q7 0 7 -8q0 -17 -42.5 -74t-76.5 -97q23 -24 73 -89.5t50 -78.5q0 -9 -8 -9q-3 0 -7.5 3t-7.5 6.5t-7.5 8.5t-5.5 6zM59 249l166 155q24 24 27 24q7 0 7 -8q0 -17 -42.5 -74t-76.5 -97q23 -24 73 -89.5t50 -78.5q0 -9 -8 -9q-3 0 -7.5 3 t-7.5 6.5t-7.5 8.5t-5.5 6z"/>
<glyph glyph-name="logicalnot" d="M501 314v-229h-54v175h-389v54h443z" unicode="¬"/>
<glyph glyph-name="uni00AD" horiz-adv-x="360" unicode="­" d="M68 226v48h218v-48h-218z"/>
<glyph glyph-name="registered" horiz-adv-x="760" unicode="®" d="M330 353h15q23 0 39.5 1.5t35 6.5t29.5 14.5t18.5 27t7.5 41.5q0 88 -96 88q-33 0 -41 -6t-8 -38v-135zM430 340v-2q24 -1 44.5 -26t43.5 -76q22 -49 34.5 -63.5t37.5 -15.5v-20h-27q-53 0 -67.5 10.5t-36.5 61.5q-5 12 -8 19q-2 4 -10 22.5t-10 22.5t-9.5 17t-12.5 17 t-14 10.5t-20 8.5t-24 2q-14 0 -21 -1v-142q0 -28 37 -28q2 0 5.5 0.5t5.5 0.5v-21h-164v21q2 0 5.5 -0.5t5.5 -0.5q37 0 37 28v320q0 27 -38 27h-10v21h166q80 0 121 -23t41 -80q0 -45 -33.5 -76t-78.5 -34zM386 28q125 0 209.5 91.5t84.5 221.5q0 132 -85.5 221.5 t-214.5 89.5q-125 0 -210 -91t-85 -220q0 -133 86 -223t215 -90zM379 -12q-142 0 -243 104t-101 247q0 145 101 249t244 104q146 0 248 -102.5t102 -250.5q0 -146 -103 -248.5t-248 -102.5z"/>
<glyph glyph-name="macron" horiz-adv-x="440" unicode="¯" d="M373 568h-306v54h306v-54z"/>
<glyph glyph-name="degree" horiz-adv-x="400" unicode="°" d="M310 542q0 45 -32.5 77.5t-78.5 32.5q-45 0 -77.5 -32.5t-31.5 -77.5q0 -46 32 -78t78 -32q45 0 77.5 32t32.5 78zM350 542q0 -62 -44 -106t-106 -44t-106 44t-44 106q-1 62 43.5 106t106.5 44t106 -44t44 -106z"/>
<glyph glyph-name="plusminus" d="M59 0v54h442v-54h-442zM59 294h194v148h54v-148h194v-54h-194v-148h-54v148h-194v54z" unicode="±"/>
<glyph glyph-name="two.superior" horiz-adv-x="360" unicode="²" d="M339 508l-48 -117h-270l-6 12q224 165 224 280q0 33 -23 56t-58 23q-46 0 -106 -56l-13 10q56 101 144 101q55 0 88 -35t33 -86q0 -32 -18 -67t-52 -70t-61 -59t-66 -54h112q47 0 63 11.5t42 56.5z"/>
<glyph glyph-name="three.superior" horiz-adv-x="360" unicode="³" d="M150 625l12 3q29 10 50.5 33t21.5 50q0 24 -19.5 39t-46.5 15q-50 0 -101 -47l-16 10q61 89 144 89q42 0 73 -24.5t31 -62.5q0 -60 -102 -108q49 -10 84 -39.5t35 -71.5q0 -55 -51 -93.5t-112 -38.5q-41 0 -78.5 18t-37.5 53q0 17 12.5 29t31.5 12q12 0 28 -8v-14 q0 -26 18 -44.5t47 -18.5q35 0 56 25t21 59q0 39 -34.5 62.5t-78.5 23.5q-20 0 -49 -6l-7 13q20 15 23 17q25 19 45 25z"/>
<glyph glyph-name="acute" horiz-adv-x="340" unicode="´" d="M245 716l47 -49l-182 -170l-14 12z"/>
<glyph glyph-name="mu" d="M380 84v215q0 31 -1 46t-5.5 31.5t-14.5 22.5t-27 10.5t-44 4.5v15l175 13l-6 -331q0 -5 -0.5 -15t-0.5 -14q0 -22 8 -33.5t33 -11.5l46 4l4 -15l-170 -41l3 78q-101 -73 -169 -73q-70 0 -91 54h-2v-116q0 -12 13 -51t13 -51q0 -27 -11.5 -47.5t-29.5 -20.5t-29.5 20.5 t-11.5 47.5q0 12 13 51t13 51v382v34q0 39 -13 54.5t-58 15.5h-3v15l151 13v-247v-26q0 -129 105 -129q61 0 110 44z" unicode="µ"/>
<glyph glyph-name="paragraph" horiz-adv-x="600" unicode="¶" d="M404 657h-60v-877h-191v15q92 13 114.5 41.5t22.5 121.5v335q-39 5 -73 13t-69.5 24t-60.5 37.5t-41 54.5t-16 74q0 53 28 91.5t74.5 58t93.5 28t96 8.5h72l181 -9v-15q-78 -7 -97.5 -34t-19.5 -103v-48v-515q0 -92 20.5 -121t103.5 -42v-15h-178v877z"/>
<glyph glyph-name="periodcentered" horiz-adv-x="280" unicode="·" d="M140 166q-22 0 -38 16t-16 38q0 23 16 39t38 16t38.5 -16.5t16.5 -38.5t-16 -38t-39 -16z"/>
<glyph glyph-name="cedilla" horiz-adv-x="300" unicode="¸" d="M118 -53q0 23 51 53h28q-25 -22 -25 -33q0 -8 29 -39.5t29 -54.5q0 -29 -34 -60t-70 -31q-21 0 -38.5 11t-17.5 30q0 10 6 17.5t16 7.5q14 0 37 -15.5t37 -15.5q22 0 22 21q0 15 -35 52.5t-35 56.5z"/>
<glyph glyph-name="one.superior" horiz-adv-x="360" unicode="¹" d="M59 805h157q-5 -128 -5 -209q0 -14 0.5 -45t0.5 -46q0 -23 0.5 -31.5t3.5 -22.5t8 -19t15.5 -11.5t26 -9.5t38.5 -5v-15h-247v15q23 2 38.5 5t26 10t15.5 11t7.5 19t3 22.5t1.5 31.5v200q0 47 -14 63t-76 22v15z"/>
<glyph glyph-name="ordmasculine" horiz-adv-x="540" unicode="º" d="M380 517q0 56 -28 104t-81 48q-52 0 -79.5 -43.5t-27.5 -99.5q0 -55 30.5 -102.5t82.5 -47.5q49 0 76 44.5t27 96.5zM452 520q0 -71 -54 -119t-126 -48q-76 0 -128 45.5t-52 120.5q0 76 53 124.5t129 48.5q78 0 128 -47.5t50 -124.5z"/>
<glyph glyph-name="guillemotright" horiz-adv-x="500" unicode="»" d="M264 249l-166 -155q-24 -24 -27 -24q-7 0 -7 8q0 17 42.5 74t76.5 97q-23 24 -73 89.5t-50 78.5q0 9 8 9q3 0 7.5 -3t7.5 -7t7.5 -8.5l5.5 -5.5zM441 249l-166 -155q-24 -24 -27 -24q-7 0 -7 8q0 17 42.5 74t76.5 97q-23 24 -73 89.5t-50 78.5q0 9 8 9q3 0 7.5 -3t7.5 -7 t7.5 -8.5l5.5 -5.5z"/>
<glyph glyph-name="onequarter" horiz-adv-x="840" unicode="¼" d="M651 332l-131 -160h131v160zM693 425l25 -9q-5 -85 -5 -212v-32h88v-45h-88v-28q0 -24 1.5 -34t8.5 -22t23.5 -18t45.5 -10v-15h-223v15q31 4 48 10t24.5 18.5t8.5 22t1 33.5v28h-186l-3 18zM623 680l-382 -680h-48l382 680h48zM39 680h157q-5 -128 -5 -209 q0 -14 0.5 -45t0.5 -46q0 -23 0.5 -31.5t3.5 -22.5t8 -19t15.5 -11.5t26 -9.5t38.5 -5v-15h-247v15q23 2 38.5 5t26 10t15.5 11t7.5 19t3 22.5t1.5 31.5v200q0 47 -14 63t-76 22v15z"/>
<glyph glyph-name="onehalf" horiz-adv-x="840" unicode="½" d="M819 117l-48 -117h-270l-6 12q224 165 224 280q0 33 -23 56t-58 23q-46 0 -106 -56l-13 10q56 101 144 101q55 0 88 -35t33 -86q0 -32 -18 -67t-52 -70t-61 -59t-66 -54h112q47 0 63 11.5t42 56.5zM628 680l-382 -680h-48l382 680h48zM39 680h157q-5 -128 -5 -209 q0 -14 0.5 -45t0.5 -46q0 -23 0.5 -31.5t3.5 -22.5t8 -19t15.5 -11.5t26 -9.5t38.5 -5v-15h-247v15q23 2 38.5 5t26 10t15.5 11t7.5 19t3 22.5t1.5 31.5v200q0 47 -14 63t-76 22v15z"/>
<glyph glyph-name="threequarters" horiz-adv-x="840" unicode="¾" d="M651 332l-131 -160h131v160zM693 425l25 -9q-5 -85 -5 -212v-32h88v-45h-88v-28q0 -24 1.5 -34t8.5 -22t23.5 -18t45.5 -10v-15h-223v15q31 4 48 10t24.5 18.5t8.5 22t1 33.5v28h-186l-3 18zM643 680l-382 -680h-48l382 680h48zM160 500l12 3q29 10 50.5 33t21.5 50 q0 24 -19.5 39t-46.5 15q-50 0 -101 -47l-16 10q61 89 144 89q42 0 73 -24.5t31 -62.5q0 -60 -102 -108q49 -10 84 -39.5t35 -71.5q0 -55 -51 -93.5t-112 -38.5q-41 0 -78.5 18t-37.5 53q0 17 12.5 29t31.5 12q12 0 28 -8v-14q0 -26 18 -44.5t47 -18.5q35 0 56 25t21 59 q0 39 -34.5 62.5t-78.5 23.5q-20 0 -49 -6l-7 13q20 15 23 17q25 19 45 25z"/>
<glyph glyph-name="questiondown" horiz-adv-x="360" unicode="¿" d="M236 343q-22 0 -38 15.5t-16 38.5t16 39t38 16t38.5 -16t16.5 -39q0 -22 -16 -38t-39 -16zM248 274h19l8 -110v-11q0 -34 -17 -52.5t-41 -24.5t-48 -10t-41 -16t-17 -36t22.5 -44.5t60 -42t51.5 -34.5q24 -23 24 -59q0 -28 -17 -86l-17 4q-1 22 -11 38.5t-16 21t-34 23.5 q-50 35 -61 50q-26 33 -26 120q0 57 10.5 90t26 42.5t35 15t36.5 7t30.5 18.5t17.5 51z"/>
<glyph glyph-name="Agrave" horiz-adv-x="680" unicode="À" d="M265 934l149 -207l-14 -12l-182 170zM411 331l-104 260l-94 -260h198zM424 285h-228q-1 -4 -21 -57.5t-30 -88t-10 -56.5q0 -15 6 -26t13 -17t22 -11t22.5 -6.5t27 -4t23.5 -3.5v-15h-274v15q63 17 83.5 38t45.5 84l113 295l60 163q15 41 15 52q0 10 -4 17q42 17 73 54 l220 -586q22 -59 44.5 -82.5t79.5 -34.5v-15h-294v15q23 5 36.5 10t27 19t13.5 35q0 10 -3.5 26t-7 30t-12 37.5t-13 36.5t-15 40t-13.5 36z"/>
<glyph glyph-name="Aacute" horiz-adv-x="680" unicode="Á" d="M415 934l47 -49l-182 -170l-14 12zM411 331l-104 260l-94 -260h198zM424 285h-228q-1 -4 -21 -57.5t-30 -88t-10 -56.5q0 -15 6 -26t13 -17t22 -11t22.5 -6.5t27 -4t23.5 -3.5v-15h-274v15q63 17 83.5 38t45.5 84l113 295l60 163q15 41 15 52q0 10 -4 17q42 17 73 54 l220 -586q22 -59 44.5 -82.5t79.5 -34.5v-15h-294v15q23 5 36.5 10t27 19t13.5 35q0 10 -3.5 26t-7 30t-12 37.5t-13 36.5t-15 40t-13.5 36z"/>
<glyph glyph-name="Acircumflex" horiz-adv-x="680" unicode="Â" d="M240 715l-16 7l112 234h9l111 -234l-14 -7l-103 146zM411 331l-104 260l-94 -260h198zM424 285h-228q-1 -4 -21 -57.5t-30 -88t-10 -56.5q0 -15 6 -26t13 -17t22 -11t22.5 -6.5t27 -4t23.5 -3.5v-15h-274v15q63 17 83.5 38t45.5 84l113 295l60 163q15 41 15 52 q0 10 -4 17q42 17 73 54l220 -586q22 -59 44.5 -82.5t79.5 -34.5v-15h-294v15q23 5 36.5 10t27 19t13.5 35q0 10 -3.5 26t-7 30t-12 37.5t-13 36.5t-15 40t-13.5 36z"/>
<glyph glyph-name="Atilde" horiz-adv-x="680" unicode="Ã" d="M227 806q-24 0 -64 -23l-9 14q79 55 115 55q25 0 79 -27q60 -27 80 -27q40 0 86 46l11 -11q-75 -82 -136 -82q-24 0 -82 27.5t-80 27.5zM411 331l-104 260l-94 -260h198zM424 285h-228q-1 -4 -21 -57.5t-30 -88t-10 -56.5q0 -15 6 -26t13 -17t22 -11t22.5 -6.5t27 -4 t23.5 -3.5v-15h-274v15q63 17 83.5 38t45.5 84l113 295l60 163q15 41 15 52q0 10 -4 17q42 17 73 54l220 -586q22 -59 44.5 -82.5t79.5 -34.5v-15h-294v15q23 5 36.5 10t27 19t13.5 35q0 10 -3.5 26t-7 30t-12 37.5t-13 36.5t-15 40t-13.5 36z"/>
<glyph glyph-name="Adieresis" horiz-adv-x="680" unicode="Ä" d="M292 793q0 -20 -14 -34t-33 -14q-20 0 -34 14t-14 34t14 33.5t34 13.5q19 0 33 -14t14 -33zM483 793q0 -19 -14.5 -33.5t-33.5 -14.5t-33 14t-14 34q0 19 14 33t33 14q20 0 34 -14t14 -33zM411 331l-104 260l-94 -260h198zM424 285h-228q-1 -4 -21 -57.5t-30 -88 t-10 -56.5q0 -15 6 -26t13 -17t22 -11t22.5 -6.5t27 -4t23.5 -3.5v-15h-274v15q63 17 83.5 38t45.5 84l113 295l60 163q15 41 15 52q0 10 -4 17q42 17 73 54l220 -586q22 -59 44.5 -82.5t79.5 -34.5v-15h-294v15q23 5 36.5 10t27 19t13.5 35q0 10 -3.5 26t-7 30t-12 37.5 t-13 36.5t-15 40t-13.5 36z"/>
<glyph glyph-name="Aring" horiz-adv-x="680" unicode="Å" d="M396 820q0 24 -16 43.5t-41 19.5q-24 0 -40 -19.5t-16 -43.5q0 -25 16 -44.5t40 -19.5q25 0 41 19.5t16 44.5zM428 820q0 -37 -26 -63t-63 -26q-36 0 -62 26t-26 63q0 36 26 62t62 26q37 0 63 -25.5t26 -62.5zM411 331l-104 260l-94 -260h198zM424 285h-228 q-1 -4 -21 -57.5t-30 -88t-10 -56.5q0 -15 6 -26t13 -17t22 -11t22.5 -6.5t27 -4t23.5 -3.5v-15h-274v15q63 17 83.5 38t45.5 84l113 295l60 163q15 41 15 52q0 10 -4 17q42 17 73 54l220 -586q22 -59 44.5 -82.5t79.5 -34.5v-15h-294v15q23 5 36.5 10t27 19t13.5 35 q0 10 -3.5 26t-7 30t-12 37.5t-13 36.5t-15 40t-13.5 36z"/>
<glyph glyph-name="AE" horiz-adv-x="960" unicode="Æ" d="M459 322h-195l-30 -54q-2 -4 -17.5 -32t-26.5 -48.5t-24.5 -47.5t-21 -47.5t-7.5 -30.5q0 -18 15 -27t46.5 -14t33.5 -6v-15h-259v15q36 10 55.5 21.5t39.5 39.5l99 154l185 293q48 78 48 101q0 18 -19.5 27.5t-63.5 13.5v15h540l-15 -152h-15q-2 27 -8.5 47t-15 33.5 t-24.5 23t-28.5 14t-36 7t-38.5 3t-44 0.5h-85v-292h84q68 0 102 17t42 76h15v-223h-19q-3 31 -13 50t-31 27t-38.5 9.5t-52.5 1.5h-5h-84v-135v-29q0 -35 3.5 -55t16.5 -40.5t42.5 -29.5t77.5 -9q95 0 142.5 40t69.5 132h15q-3 -77 -37 -196h-534v15q29 6 48.5 11.5 t32.5 15.5t20 18.5t10.5 27t4 33t0.5 43.5v158zM290 364h169v281h-2z"/>
<glyph glyph-name="Ccedilla" horiz-adv-x="740" unicode="Ç" d="M676 638v-164h-15q-15 89 -66.5 141.5t-138.5 52.5q-132 0 -209 -93.5t-77 -228.5q0 -142 91 -238t205 -96q47 0 83.5 15.5t63.5 47t44 62.5t37 79l14 -6q-17 -88 -55 -179q-89 -43 -204 -43q-23 0 -42 3q-15 -15 -15 -24q0 -8 29 -39.5t29 -54.5q0 -29 -34 -60t-70 -31 q-21 0 -38.5 11t-17.5 30q0 10 6 17.5t16 7.5q14 0 37 -15.5t37 -15.5q22 0 22 21q0 15 -35 52.5t-35 56.5q0 20 43 48q-143 17 -235 106t-92 233q0 68 26.5 131.5t75.5 114.5t127.5 81.5t173.5 30.5q128 0 219 -54z"/>
<glyph glyph-name="Egrave" horiz-adv-x="660" unicode="È" d="M255 934l149 -207l-14 -12l-182 170zM31 0v15q30 4 50.5 9t34.5 14.5t21 17.5t11 28t5 34t2 46v352q-1 32 -2 46t-5 34t-11 28t-21 17.5t-34.5 14.5t-50.5 9v15h537l-12 -154h-15q-2 31 -9.5 54t-24 37t-31 22.5t-41.5 11.5t-44.5 4t-50.5 1h-97v-285h104q67 0 101 16.5 t42 75.5h15v-223h-15q-4 26 -13.5 43t-20 26t-31 13.5t-35 5.5t-43.5 1h-104v-164v-27q0 -25 4 -41.5t18 -35t46 -28t82 -9.5q95 0 144.5 40t68.5 134h15q-1 -100 -34 -198h-556z"/>
<glyph glyph-name="Eacute" horiz-adv-x="660" unicode="É" d="M405 934l47 -49l-182 -170l-14 12zM31 0v15q30 4 50.5 9t34.5 14.5t21 17.5t11 28t5 34t2 46v352q-1 32 -2 46t-5 34t-11 28t-21 17.5t-34.5 14.5t-50.5 9v15h537l-12 -154h-15q-2 31 -9.5 54t-24 37t-31 22.5t-41.5 11.5t-44.5 4t-50.5 1h-97v-285h104q67 0 101 16.5 t42 75.5h15v-223h-15q-4 26 -13.5 43t-20 26t-31 13.5t-35 5.5t-43.5 1h-104v-164v-27q0 -25 4 -41.5t18 -35t46 -28t82 -9.5q95 0 144.5 40t68.5 134h15q-1 -100 -34 -198h-556z"/>
<glyph glyph-name="Ecircumflex" horiz-adv-x="660" unicode="Ê" d="M230 715l-16 7l112 234h9l111 -234l-14 -7l-103 146zM31 0v15q30 4 50.5 9t34.5 14.5t21 17.5t11 28t5 34t2 46v352q-1 32 -2 46t-5 34t-11 28t-21 17.5t-34.5 14.5t-50.5 9v15h537l-12 -154h-15q-2 31 -9.5 54t-24 37t-31 22.5t-41.5 11.5t-44.5 4t-50.5 1h-97v-285h104 q67 0 101 16.5t42 75.5h15v-223h-15q-4 26 -13.5 43t-20 26t-31 13.5t-35 5.5t-43.5 1h-104v-164v-27q0 -25 4 -41.5t18 -35t46 -28t82 -9.5q95 0 144.5 40t68.5 134h15q-1 -100 -34 -198h-556z"/>
<glyph glyph-name="Edieresis" horiz-adv-x="660" unicode="Ë" d="M282 793q0 -20 -14 -34t-33 -14q-20 0 -34 14t-14 34t14 33.5t34 13.5q19 0 33 -14t14 -33zM473 793q0 -19 -14.5 -33.5t-33.5 -14.5t-33 14t-14 34q0 19 14 33t33 14q20 0 34 -14t14 -33zM31 0v15q30 4 50.5 9t34.5 14.5t21 17.5t11 28t5 34t2 46v352q-1 32 -2 46t-5 34 t-11 28t-21 17.5t-34.5 14.5t-50.5 9v15h537l-12 -154h-15q-2 31 -9.5 54t-24 37t-31 22.5t-41.5 11.5t-44.5 4t-50.5 1h-97v-285h104q67 0 101 16.5t42 75.5h15v-223h-15q-4 26 -13.5 43t-20 26t-31 13.5t-35 5.5t-43.5 1h-104v-164v-27q0 -25 4 -41.5t18 -35t46 -28 t82 -9.5q95 0 144.5 40t68.5 134h15q-1 -100 -34 -198h-556z"/>
<glyph glyph-name="Igrave" horiz-adv-x="400" unicode="Ì" d="M125 934l149 -207l-14 -12l-182 170zM244 516v-352q1 -32 2 -46t5 -34t11 -28t21 -17.5t34.5 -14.5t50.5 -9v-15h-336v15q30 4 50.5 9t34.5 14.5t21 17.5t11 28t5 34t2 46v352q-1 32 -2 46t-5 34t-11 28t-21 17.5t-34.5 14.5t-50.5 9v15h336v-15q-30 -4 -50.5 -9 t-34.5 -14.5t-21 -17.5t-11 -28t-5 -34t-2 -46z"/>
<glyph glyph-name="Iacute" horiz-adv-x="400" unicode="Í" d="M275 934l47 -49l-182 -170l-14 12zM244 516v-352q1 -32 2 -46t5 -34t11 -28t21 -17.5t34.5 -14.5t50.5 -9v-15h-336v15q30 4 50.5 9t34.5 14.5t21 17.5t11 28t5 34t2 46v352q-1 32 -2 46t-5 34t-11 28t-21 17.5t-34.5 14.5t-50.5 9v15h336v-15q-30 -4 -50.5 -9 t-34.5 -14.5t-21 -17.5t-11 -28t-5 -34t-2 -46z"/>
<glyph glyph-name="Icircumflex" horiz-adv-x="400" unicode="Î" d="M100 715l-16 7l112 234h9l111 -234l-14 -7l-103 146zM244 516v-352q1 -32 2 -46t5 -34t11 -28t21 -17.5t34.5 -14.5t50.5 -9v-15h-336v15q30 4 50.5 9t34.5 14.5t21 17.5t11 28t5 34t2 46v352q-1 32 -2 46t-5 34t-11 28t-21 17.5t-34.5 14.5t-50.5 9v15h336v-15 q-30 -4 -50.5 -9t-34.5 -14.5t-21 -17.5t-11 -28t-5 -34t-2 -46z"/>
<glyph glyph-name="Idieresis" horiz-adv-x="400" unicode="Ï" d="M152 793q0 -20 -14 -34t-33 -14q-20 0 -34 14t-14 34t14 33.5t34 13.5q19 0 33 -14t14 -33zM343 793q0 -19 -14.5 -33.5t-33.5 -14.5t-33 14t-14 34q0 19 14 33t33 14q20 0 34 -14t14 -33zM244 516v-352q1 -32 2 -46t5 -34t11 -28t21 -17.5t34.5 -14.5t50.5 -9v-15h-336 v15q30 4 50.5 9t34.5 14.5t21 17.5t11 28t5 34t2 46v352q-1 32 -2 46t-5 34t-11 28t-21 17.5t-34.5 14.5t-50.5 9v15h336v-15q-30 -4 -50.5 -9t-34.5 -14.5t-21 -17.5t-11 -28t-5 -34t-2 -46z"/>
<glyph glyph-name="Eth" horiz-adv-x="820" unicode="Ð" d="M155 386v125q-1 32 -2 46t-4.5 34t-10.5 28t-20.5 17.5t-32.5 14.5t-48 9v14l242 8q6 0 17.5 0.5t16.5 0.5q84 0 153 -14t115 -36.5t81 -54t54 -62t30.5 -66t15 -61.5t3.5 -51q0 -46 -11.5 -90t-42 -90.5t-77 -81t-123.5 -56.5t-174 -22h-8l-298 2v15q30 4 50.5 9 t34.5 14.5t21 17.5t11 28t5 34t2 46v180h-118v42h118zM243 662v-276h184v-42h-184v-190q0 -30 4 -49.5t17 -40t42 -31t73 -10.5q47 0 91.5 15.5t86 48.5t67 94t25.5 142q0 87 -32 153.5t-88.5 106t-128 59.5t-154.5 20h-3z"/>
<glyph glyph-name="Ntilde" horiz-adv-x="820" unicode="Ñ" d="M297 796q-24 0 -64 -23l-9 14q79 55 115 55q25 0 79 -27q60 -27 80 -27q40 0 86 46l11 -11q-75 -82 -136 -82q-24 0 -82 27.5t-80 27.5zM181 680l494 -523l-5 365q-1 72 -28.5 100t-111.5 43v15h273v-15q-48 -6 -65.5 -31.5t-24.5 -80.5q-9 -69 -9 -236q0 -146 5 -333 l-13 -3q-71 84 -155.5 175t-190 200.5t-161.5 170.5v-184v-53q0 -44 0.5 -69t2.5 -55t5.5 -45.5t10.5 -33.5t17 -27t25 -19t33.5 -15.5t44.5 -10.5v-15h-299v15q24 2 42 7.5t31.5 16t23 21.5t16 31.5t10 38t5 49t2 56.5t0.5 68v45v150q0 80 -26 113.5t-117 53.5v15h165z"/>
<glyph glyph-name="Ograve" horiz-adv-x="840" unicode="Ò" d="M345 954l149 -207l-14 -12l-182 170zM411 668q-62 0 -110 -28t-75.5 -73.5t-41.5 -97t-14 -104.5q0 -60 16 -120.5t47 -113.5t83 -86t116 -33q78 0 134 49t80 117.5t24 144.5q-2 138 -75 241.5t-184 103.5zM419 692q93 0 165 -29.5t115 -80t65 -112t22 -130.5 q0 -159 -103 -255.5t-263 -96.5q-161 0 -263.5 96.5t-102.5 256.5q0 158 103 254.5t262 96.5z"/>
<glyph glyph-name="Oacute" horiz-adv-x="840" unicode="Ó" d="M495 934l47 -49l-182 -170l-14 12zM411 668q-62 0 -110 -28t-75.5 -73.5t-41.5 -97t-14 -104.5q0 -60 16 -120.5t47 -113.5t83 -86t116 -33q78 0 134 49t80 117.5t24 144.5q-2 138 -75 241.5t-184 103.5zM419 692q93 0 165 -29.5t115 -80t65 -112t22 -130.5 q0 -159 -103 -255.5t-263 -96.5q-161 0 -263.5 96.5t-102.5 256.5q0 158 103 254.5t262 96.5z"/>
<glyph glyph-name="Ocircumflex" horiz-adv-x="840" unicode="Ô" d="M320 715l-16 7l112 234h9l111 -234l-14 -7l-103 146zM411 668q-62 0 -110 -28t-75.5 -73.5t-41.5 -97t-14 -104.5q0 -60 16 -120.5t47 -113.5t83 -86t116 -33q78 0 134 49t80 117.5t24 144.5q-2 138 -75 241.5t-184 103.5zM419 692q93 0 165 -29.5t115 -80t65 -112 t22 -130.5q0 -159 -103 -255.5t-263 -96.5q-161 0 -263.5 96.5t-102.5 256.5q0 158 103 254.5t262 96.5z"/>
<glyph glyph-name="Otilde" horiz-adv-x="840" unicode="Õ" d="M307 796q-24 0 -64 -23l-9 14q79 55 115 55q25 0 79 -27q60 -27 80 -27q40 0 86 46l11 -11q-75 -82 -136 -82q-24 0 -82 27.5t-80 27.5zM411 668q-62 0 -110 -28t-75.5 -73.5t-41.5 -97t-14 -104.5q0 -60 16 -120.5t47 -113.5t83 -86t116 -33q78 0 134 49t80 117.5 t24 144.5q-2 138 -75 241.5t-184 103.5zM419 692q93 0 165 -29.5t115 -80t65 -112t22 -130.5q0 -159 -103 -255.5t-263 -96.5q-161 0 -263.5 96.5t-102.5 256.5q0 158 103 254.5t262 96.5z"/>
<glyph glyph-name="Odieresis" horiz-adv-x="840" unicode="Ö" d="M372 793q0 -20 -14 -34t-33 -14q-20 0 -34 14t-14 34t14 33.5t34 13.5q19 0 33 -14t14 -33zM563 793q0 -19 -14.5 -33.5t-33.5 -14.5t-33 14t-14 34q0 19 14 33t33 14q20 0 34 -14t14 -33zM411 668q-62 0 -110 -28t-75.5 -73.5t-41.5 -97t-14 -104.5q0 -60 16 -120.5 t47 -113.5t83 -86t116 -33q78 0 134 49t80 117.5t24 144.5q-2 138 -75 241.5t-184 103.5zM419 692q93 0 165 -29.5t115 -80t65 -112t22 -130.5q0 -159 -103 -255.5t-263 -96.5q-161 0 -263.5 96.5t-102.5 256.5q0 158 103 254.5t262 96.5z"/>
<glyph glyph-name="multiply" d="M59 38l184 183l-184 183l39 38l183 -183l183 183l38 -38l-183 -183l183 -183l-38 -38l-183 183l-183 -183z" unicode="×"/>
<glyph glyph-name="Oslash" horiz-adv-x="840" unicode="Ø" d="M251 106l316 487q-72 75 -159 75q-78 0 -134 -46t-80.5 -112.5t-24.5 -142.5q0 -154 82 -261zM593 566l-319 -487q72 -67 159 -67q94 0 165.5 82.5t71.5 222.5q0 145 -77 249zM669 751l32 -19l-63 -97q148 -105 148 -290q0 -161 -101.5 -259t-263.5 -98q-106 0 -182 38 l-69 -108l-31 22l69 104q-76 46 -115.5 126t-39.5 174q0 154 103 251t271 97q98 0 179 -39z"/>
<glyph glyph-name="Ugrave" horiz-adv-x="840" unicode="Ù" d="M325 934l149 -207l-14 -12l-182 170zM529 680h290v-15q-27 -3 -45 -12.5t-28.5 -22.5t-16.5 -40t-8 -52t-3 -71l-6 -219q-6 -260 -280 -260q-74 0 -127.5 17.5t-82 42.5t-45 62t-20.5 65.5t-4 64.5q0 11 0.5 28.5t0.5 23.5v224q-1 32 -2 46t-5 34t-11 28t-21 17.5 t-34.5 14.5t-50.5 9v15h345v-15q-34 -5 -55.5 -9.5t-37 -13.5t-23 -16.5t-12 -26.5t-5 -34.5t-0.5 -48.5v-205v-11q-1 -12 -1 -22q0 -28 3.5 -54.5t18.5 -63t39.5 -62.5t71.5 -45t110 -19q52 0 89.5 16.5t57.5 41t31.5 62.5t14.5 69t3 74q0 12 -0.5 33.5t-0.5 31.5v105 q0 54 -4 83.5t-18.5 57t-45 40t-82.5 17.5v15z"/>
<glyph glyph-name="Uacute" horiz-adv-x="840" unicode="Ú" d="M515 934l47 -49l-182 -170l-14 12zM529 680h290v-15q-27 -3 -45 -12.5t-28.5 -22.5t-16.5 -40t-8 -52t-3 -71l-6 -219q-6 -260 -280 -260q-74 0 -127.5 17.5t-82 42.5t-45 62t-20.5 65.5t-4 64.5q0 11 0.5 28.5t0.5 23.5v224q-1 32 -2 46t-5 34t-11 28t-21 17.5 t-34.5 14.5t-50.5 9v15h345v-15q-34 -5 -55.5 -9.5t-37 -13.5t-23 -16.5t-12 -26.5t-5 -34.5t-0.5 -48.5v-205v-11q-1 -12 -1 -22q0 -28 3.5 -54.5t18.5 -63t39.5 -62.5t71.5 -45t110 -19q52 0 89.5 16.5t57.5 41t31.5 62.5t14.5 69t3 74q0 12 -0.5 33.5t-0.5 31.5v105 q0 54 -4 83.5t-18.5 57t-45 40t-82.5 17.5v15z"/>
<glyph glyph-name="Ucircumflex" horiz-adv-x="840" unicode="Û" d="M340 715l-16 7l112 234h9l111 -234l-14 -7l-103 146zM529 680h290v-15q-27 -3 -45 -12.5t-28.5 -22.5t-16.5 -40t-8 -52t-3 -71l-6 -219q-6 -260 -280 -260q-74 0 -127.5 17.5t-82 42.5t-45 62t-20.5 65.5t-4 64.5q0 11 0.5 28.5t0.5 23.5v224q-1 32 -2 46t-5 34t-11 28 t-21 17.5t-34.5 14.5t-50.5 9v15h345v-15q-34 -5 -55.5 -9.5t-37 -13.5t-23 -16.5t-12 -26.5t-5 -34.5t-0.5 -48.5v-205v-11q-1 -12 -1 -22q0 -28 3.5 -54.5t18.5 -63t39.5 -62.5t71.5 -45t110 -19q52 0 89.5 16.5t57.5 41t31.5 62.5t14.5 69t3 74q0 12 -0.5 33.5t-0.5 31.5 v105q0 54 -4 83.5t-18.5 57t-45 40t-82.5 17.5v15z"/>
<glyph glyph-name="Udieresis" horiz-adv-x="840" unicode="Ü" d="M392 793q0 -20 -14 -34t-33 -14q-20 0 -34 14t-14 34t14 33.5t34 13.5q19 0 33 -14t14 -33zM583 793q0 -19 -14.5 -33.5t-33.5 -14.5t-33 14t-14 34q0 19 14 33t33 14q20 0 34 -14t14 -33zM529 680h290v-15q-27 -3 -45 -12.5t-28.5 -22.5t-16.5 -40t-8 -52t-3 -71 l-6 -219q-6 -260 -280 -260q-74 0 -127.5 17.5t-82 42.5t-45 62t-20.5 65.5t-4 64.5q0 11 0.5 28.5t0.5 23.5v224q-1 32 -2 46t-5 34t-11 28t-21 17.5t-34.5 14.5t-50.5 9v15h345v-15q-34 -5 -55.5 -9.5t-37 -13.5t-23 -16.5t-12 -26.5t-5 -34.5t-0.5 -48.5v-205v-11 q-1 -12 -1 -22q0 -28 3.5 -54.5t18.5 -63t39.5 -62.5t71.5 -45t110 -19q52 0 89.5 16.5t57.5 41t31.5 62.5t14.5 69t3 74q0 12 -0.5 33.5t-0.5 31.5v105q0 54 -4 83.5t-18.5 57t-45 40t-82.5 17.5v15z"/>
<glyph glyph-name="Yacute" horiz-adv-x="600" unicode="Ý" d="M395 934l47 -49l-182 -170l-14 12zM370 680h257v-15q-61 -5 -99 -36t-73 -91l-118 -234v-113q1 -42 2.5 -61.5t8 -43.5t20.5 -34.5t38 -20.5t63 -16v-15h-352v15q39 6 63 16t38 20.5t20.5 34.5t8 43.5t2.5 61.5v80l-104 227q-38 85 -60 111q-39 48 -106 56v15h276v-15 q-63 -8 -63 -42q0 -19 24 -72l100 -216l87 165q40 74 40 111q0 24 -17.5 36.5t-55.5 17.5v15z"/>
<glyph glyph-name="Thorn" horiz-adv-x="600" unicode="Þ" d="M154 164v352q-1 32 -2 46t-5 34t-11 28t-21 17.5t-34.5 14.5t-50.5 9v15h345v-15q-48 -7 -75.5 -17t-40 -29t-15 -36t-2.5 -53h29q299 0 299 -123q0 -44 -23 -76.5t-62 -50.5t-81 -27t-90 -11l-3 15q75 8 116 38t41 93q0 59 -57 89t-143 30q-4 0 -13 -0.5t-13 -0.5v-342 q0 -33 0.5 -48.5t5 -34.5t12 -26.5t23 -16.5t37 -13.5t55.5 -9.5v-15h-345v15q30 4 50.5 9t34.5 14.5t21 17.5t11 28t5 34t2 46z"/>
<glyph glyph-name="germandbls" horiz-adv-x="540" unicode="ß" d="M13 398l81 49v9q0 83 70 172.5t166 89.5q54 0 90.5 -39t36.5 -95q0 -13 -6 -41q-2 -2 -14.5 -11.5t-16.5 -12.5t-15.5 -12.5t-16 -14.5t-13.5 -14.5t-13 -16.5t-9 -16.5t-7 -19t-2 -19.5q0 -28 17.5 -53t42 -45t49 -42t42 -52.5t17.5 -66.5q0 -67 -61.5 -112t-114.5 -45 q-39 0 -39 32q0 13 8.5 23t20.5 10q10 0 31 -17t32 -17q7 0 18 6.5t23 26t12 47.5q0 37 -17.5 68t-42.5 52.5t-50 41t-42.5 43.5t-17.5 51q0 32 17 58t37 41.5t37 41t17 56.5q0 52 -28 88t-79 36q-102 0 -102 -290v-272q0 -62 13 -77.5t76 -23.5v-15h-239v15q50 8 61 24.5 t12 76.5v272h-81v10z"/>
<glyph glyph-name="agrave" horiz-adv-x="440" unicode="à" d="M125 716l149 -207l-14 -12l-182 170zM47 148l221 100q1 12 1 33q0 64 -23.5 92.5t-76.5 28.5q-39 0 -50.5 -14.5t-11.5 -47.5v-26l-50 -3q-23 0 -23 10q0 14 30 45t77 58.5t84 27.5q120 0 120 -150v-142v-28q0 -52 14 -70t73 -30v-15q-76 -22 -101 -22q-55 0 -63 63 q-60 -68 -127 -68q-46 0 -73 33.5t-27 80.5q0 21 6 44zM268 228l-135 -69q-7 -23 -7 -40q0 -33 18.5 -56t51.5 -23q37 0 72 37v151z"/>
<glyph glyph-name="aacute" horiz-adv-x="440" unicode="á" d="M295 716l47 -49l-182 -170l-14 12zM47 148l221 100q1 12 1 33q0 64 -23.5 92.5t-76.5 28.5q-39 0 -50.5 -14.5t-11.5 -47.5v-26l-50 -3q-23 0 -23 10q0 14 30 45t77 58.5t84 27.5q120 0 120 -150v-142v-28q0 -52 14 -70t73 -30v-15q-76 -22 -101 -22q-55 0 -63 63 q-60 -68 -127 -68q-46 0 -73 33.5t-27 80.5q0 21 6 44zM268 228l-135 -69q-7 -23 -7 -40q0 -33 18.5 -56t51.5 -23q37 0 72 37v151z"/>
<glyph glyph-name="acircumflex" horiz-adv-x="440" unicode="â" d="M120 497l-16 7l112 234h9l111 -234l-14 -7l-103 146zM47 148l221 100q1 12 1 33q0 64 -23.5 92.5t-76.5 28.5q-39 0 -50.5 -14.5t-11.5 -47.5v-26l-50 -3q-23 0 -23 10q0 14 30 45t77 58.5t84 27.5q120 0 120 -150v-142v-28q0 -52 14 -70t73 -30v-15q-76 -22 -101 -22 q-55 0 -63 63q-60 -68 -127 -68q-46 0 -73 33.5t-27 80.5q0 21 6 44zM268 228l-135 -69q-7 -23 -7 -40q0 -33 18.5 -56t51.5 -23q37 0 72 37v151z"/>
<glyph glyph-name="atilde" horiz-adv-x="440" unicode="ã" d="M107 578q-24 0 -64 -23l-9 14q79 55 115 55q25 0 79 -27q60 -27 80 -27q40 0 86 46l11 -11q-75 -82 -136 -82q-24 0 -82 27.5t-80 27.5zM47 148l221 100q1 12 1 33q0 64 -23.5 92.5t-76.5 28.5q-39 0 -50.5 -14.5t-11.5 -47.5v-26l-50 -3q-23 0 -23 10q0 14 30 45 t77 58.5t84 27.5q120 0 120 -150v-142v-28q0 -52 14 -70t73 -30v-15q-76 -22 -101 -22q-55 0 -63 63q-60 -68 -127 -68q-46 0 -73 33.5t-27 80.5q0 21 6 44zM268 228l-135 -69q-7 -23 -7 -40q0 -33 18.5 -56t51.5 -23q37 0 72 37v151z"/>
<glyph glyph-name="adieresis" horiz-adv-x="440" unicode="ä" d="M172 575q0 -20 -14 -34t-33 -14q-20 0 -34 14t-14 34t14 33.5t34 13.5q19 0 33 -14t14 -33zM363 575q0 -19 -14.5 -33.5t-33.5 -14.5t-33 14t-14 34q0 19 14 33t33 14q20 0 34 -14t14 -33zM268 228l-135 -69q-7 -23 -7 -40q0 -33 18.5 -56t51.5 -23q37 0 72 37v151z M47 148l221 100q1 12 1 33q0 64 -23.5 92.5t-76.5 28.5q-39 0 -50.5 -14.5t-11.5 -47.5v-26l-50 -3q-23 0 -23 10q0 14 30 45t77 58.5t84 27.5q120 0 120 -150v-142v-28q0 -52 14 -70t73 -30v-15q-76 -22 -101 -22q-55 0 -63 63q-60 -68 -127 -68q-46 0 -73 33.5t-27 80.5 q0 21 6 44z"/>
<glyph glyph-name="aring" horiz-adv-x="440" unicode="å" d="M276 582q0 24 -16 43.5t-41 19.5q-24 0 -40 -19.5t-16 -43.5q0 -25 16 -44.5t40 -19.5q25 0 41 19.5t16 44.5zM308 582q0 -37 -26 -63t-63 -26q-36 0 -62 26t-26 63q0 36 26 62t62 26q37 0 63 -25.5t26 -62.5zM47 148l221 100q1 12 1 33q0 64 -23.5 92.5t-76.5 28.5 q-39 0 -50.5 -14.5t-11.5 -47.5v-26l-50 -3q-23 0 -23 10q0 14 30 45t77 58.5t84 27.5q120 0 120 -150v-142v-28q0 -52 14 -70t73 -30v-15q-76 -22 -101 -22q-55 0 -63 63q-60 -68 -127 -68q-46 0 -73 33.5t-27 80.5q0 21 6 44zM268 228l-135 -69q-7 -23 -7 -40 q0 -33 18.5 -56t51.5 -23q37 0 72 37v151z"/>
<glyph glyph-name="ae" horiz-adv-x="640" unicode="æ" d="M268 211l-132 -54q-10 -30 -10 -45q0 -32 17.5 -52t48.5 -20q42 0 85 40q-9 37 -9 107v24zM598 323l-253 -85q-1 -11 -1 -32q0 -148 115 -148q80 0 141 91l16 -10q-85 -149 -197 -149q-92 0 -136 76q-65 -76 -142 -76q-46 0 -73 33.5t-27 80.5q0 21 6 44l221 83 q0 7 0.5 20t0.5 19q0 63 -20 97.5t-80 34.5q-41 0 -53 -19.5t-12 -76.5h-37h-13q-20 0 -20 12q0 21 52 68q75 66 135 66q86 0 114 -85q24 37 60.5 61t78.5 24q54 0 86 -36.5t38 -92.5zM345 256l162 62q-3 39 -21.5 64.5t-55.5 25.5q-86 0 -86 -126q0 -17 1 -26z"/>
<glyph glyph-name="ccedilla" horiz-adv-x="440" unicode="ç" d="M404 88l12 -15q-66 -76 -159 -82q-15 -15 -15 -24q0 -8 29 -39.5t29 -54.5q0 -29 -34 -60t-70 -31q-21 0 -38.5 11t-17.5 30q0 10 6 17.5t16 7.5q14 0 37 -15.5t37 -15.5q22 0 22 21q0 15 -35 52.5t-35 56.5q0 22 39 45q-85 4 -139 67.5t-54 149.5q0 103 76.5 173 t180.5 70q109 0 109 -50q0 -17 -15 -31.5t-32 -14.5q-16 0 -55 32.5t-66 32.5q-55 0 -86.5 -51t-31.5 -110q0 -94 55 -152.5t132 -58.5q49 0 103 39z"/>
<glyph glyph-name="egrave" horiz-adv-x="460" unicode="è" d="M155 716l149 -207l-14 -12l-182 170zM123 305l-4 -50q0 -3 -0.5 -8t-0.5 -8q0 -76 49.5 -130.5t127.5 -54.5q71 0 118 63l15 -11q-30 -51 -79 -83.5t-105 -32.5q-91 0 -150.5 65t-59.5 157q0 99 63 169.5t162 70.5q68 0 109.5 -40t44.5 -107h-290zM126 324l192 8 q-8 40 -30.5 69t-59.5 29q-39 0 -66 -31.5t-36 -74.5z"/>
<glyph glyph-name="eacute" horiz-adv-x="460" unicode="é" d="M325 716l47 -49l-182 -170l-14 12zM123 305l-4 -50q0 -3 -0.5 -8t-0.5 -8q0 -76 49.5 -130.5t127.5 -54.5q71 0 118 63l15 -11q-30 -51 -79 -83.5t-105 -32.5q-91 0 -150.5 65t-59.5 157q0 99 63 169.5t162 70.5q68 0 109.5 -40t44.5 -107h-290zM126 324l192 8 q-8 40 -30.5 69t-59.5 29q-39 0 -66 -31.5t-36 -74.5z"/>
<glyph glyph-name="ecircumflex" horiz-adv-x="460" unicode="ê" d="M130 497l-16 7l112 234h9l111 -234l-14 -7l-103 146zM123 305l-4 -50q0 -3 -0.5 -8t-0.5 -8q0 -76 49.5 -130.5t127.5 -54.5q71 0 118 63l15 -11q-30 -51 -79 -83.5t-105 -32.5q-91 0 -150.5 65t-59.5 157q0 99 63 169.5t162 70.5q68 0 109.5 -40t44.5 -107h-290z M126 324l192 8q-8 40 -30.5 69t-59.5 29q-39 0 -66 -31.5t-36 -74.5z"/>
<glyph glyph-name="edieresis" horiz-adv-x="460" unicode="ë" d="M182 575q0 -20 -14 -34t-33 -14q-20 0 -34 14t-14 34t14 33.5t34 13.5q19 0 33 -14t14 -33zM373 575q0 -19 -14.5 -33.5t-33.5 -14.5t-33 14t-14 34q0 19 14 33t33 14q20 0 34 -14t14 -33zM123 305l-4 -50q0 -3 -0.5 -8t-0.5 -8q0 -76 49.5 -130.5t127.5 -54.5 q71 0 118 63l15 -11q-30 -51 -79 -83.5t-105 -32.5q-91 0 -150.5 65t-59.5 157q0 99 63 169.5t162 70.5q68 0 109.5 -40t44.5 -107h-290zM126 324l192 8q-8 40 -30.5 69t-59.5 29q-39 0 -66 -31.5t-36 -74.5z"/>
<glyph glyph-name="igrave" horiz-adv-x="260" unicode="ì" d="M55 716l149 -207l-14 -12l-182 170zM242 0h-233v15q54 8 65.5 24.5t12.5 76.5v191q0 25 -2 35.5t-15 24t-44 31.5v10l127 44l11 -4v-332q0 -62 11.5 -77.5t66.5 -23.5v-15z"/>
<glyph glyph-name="iacute" horiz-adv-x="260" unicode="í" d="M205 716l47 -49l-182 -170l-14 12zM242 0h-233v15q54 8 65.5 24.5t12.5 76.5v191q0 25 -2 35.5t-15 24t-44 31.5v10l127 44l11 -4v-332q0 -62 11.5 -77.5t66.5 -23.5v-15z"/>
<glyph glyph-name="icircumflex" horiz-adv-x="260" unicode="î" d="M10 497l-16 7l112 234h9l111 -234l-14 -7l-103 146zM242 0h-233v15q54 8 65.5 24.5t12.5 76.5v191q0 25 -2 35.5t-15 24t-44 31.5v10l127 44l11 -4v-332q0 -62 11.5 -77.5t66.5 -23.5v-15z"/>
<glyph glyph-name="idieresis" horiz-adv-x="260" unicode="ï" d="M82 575q0 -20 -14 -34t-33 -14q-20 0 -34 14t-14 34t14 33.5t34 13.5q19 0 33 -14t14 -33zM273 575q0 -19 -14.5 -33.5t-33.5 -14.5t-33 14t-14 34q0 19 14 33t33 14q20 0 34 -14t14 -33zM242 0h-233v15q54 8 65.5 24.5t12.5 76.5v191q0 25 -2 35.5t-15 24t-44 31.5v10 l127 44l11 -4v-332q0 -62 11.5 -77.5t66.5 -23.5v-15z"/>
<glyph glyph-name="eth" d="M147 709l30 9q90 -34 163 -96l124 49l27 -30l-119 -47q154 -147 154 -359q0 -108 -72 -176.5t-174 -68.5q-106 0 -176 62.5t-70 166.5q0 101 71.5 167t172.5 66q35 0 58.5 -5.5t67.5 -24.5q-28 87 -83 152l-131 -52l-24 31l127 51q-63 63 -146 105zM433 213 q0 50 -15 97.5t-51.5 83.5t-87.5 36t-87 -32.5t-50.5 -77t-14.5 -94.5q0 -79 42.5 -146.5t117.5 -67.5q47 0 82 33t49.5 77.5t14.5 90.5z" unicode="ð"/>
<glyph glyph-name="ntilde" d="M147 578q-24 0 -64 -23l-9 14q79 55 115 55q25 0 79 -27q60 -27 80 -27q40 0 86 46l11 -11q-75 -82 -136 -82q-24 0 -82 27.5t-80 27.5zM92 116v191q0 35 -7 50.5t-42 40.5v10l119 44l11 -4l-8 -73q51 38 91.5 57.5t84.5 19.5q34 0 59 -11.5t37.5 -26.5t19.5 -39t8.5 -41 t1.5 -40v-178q0 -62 11.5 -77.5t66.5 -23.5v-15h-233v15q54 8 65.5 24.5t12.5 76.5v115v10q0 27 -1 44t-7.5 41t-18.5 38.5t-35.5 25t-56.5 10.5q-55 0 -102 -43v-241q0 -62 11.5 -77.5t66.5 -23.5v-15h-233v15q54 8 65.5 24.5t12.5 76.5z" unicode="ñ"/>
<glyph glyph-name="ograve" d="M205 716l149 -207l-14 -12l-182 170zM433 213q0 50 -15 97.5t-51.5 83.5t-87.5 36t-87 -32.5t-50.5 -77t-14.5 -94.5q0 -79 42.5 -146.5t117.5 -67.5q47 0 82 33t49.5 77.5t14.5 90.5zM526 223q0 -100 -72.5 -166.5t-173.5 -66.5q-106 0 -176 62.5t-70 166.5 q0 102 72 167.5t175 65.5q105 0 175 -63t70 -166z" unicode="ò"/>
<glyph glyph-name="oacute" d="M355 716l47 -49l-182 -170l-14 12zM433 213q0 50 -15 97.5t-51.5 83.5t-87.5 36t-87 -32.5t-50.5 -77t-14.5 -94.5q0 -79 42.5 -146.5t117.5 -67.5q47 0 82 33t49.5 77.5t14.5 90.5zM526 223q0 -100 -72.5 -166.5t-173.5 -66.5q-106 0 -176 62.5t-70 166.5 q0 102 72 167.5t175 65.5q105 0 175 -63t70 -166z" unicode="ó"/>
<glyph glyph-name="ocircumflex" d="M180 497l-16 7l112 234h9l111 -234l-14 -7l-103 146zM433 213q0 50 -15 97.5t-51.5 83.5t-87.5 36t-87 -32.5t-50.5 -77t-14.5 -94.5q0 -79 42.5 -146.5t117.5 -67.5q47 0 82 33t49.5 77.5t14.5 90.5zM526 223q0 -100 -72.5 -166.5t-173.5 -66.5q-106 0 -176 62.5 t-70 166.5q0 102 72 167.5t175 65.5q105 0 175 -63t70 -166z" unicode="ô"/>
<glyph glyph-name="otilde" d="M167 578q-24 0 -64 -23l-9 14q79 55 115 55q25 0 79 -27q60 -27 80 -27q40 0 86 46l11 -11q-75 -82 -136 -82q-24 0 -82 27.5t-80 27.5zM433 213q0 50 -15 97.5t-51.5 83.5t-87.5 36t-87 -32.5t-50.5 -77t-14.5 -94.5q0 -79 42.5 -146.5t117.5 -67.5q47 0 82 33 t49.5 77.5t14.5 90.5zM526 223q0 -100 -72.5 -166.5t-173.5 -66.5q-106 0 -176 62.5t-70 166.5q0 102 72 167.5t175 65.5q105 0 175 -63t70 -166z" unicode="õ"/>
<glyph glyph-name="odieresis" d="M232 575q0 -20 -14 -34t-33 -14q-20 0 -34 14t-14 34t14 33.5t34 13.5q19 0 33 -14t14 -33zM423 575q0 -19 -14.5 -33.5t-33.5 -14.5t-33 14t-14 34q0 19 14 33t33 14q20 0 34 -14t14 -33zM433 213q0 50 -15 97.5t-51.5 83.5t-87.5 36t-87 -32.5t-50.5 -77t-14.5 -94.5 q0 -79 42.5 -146.5t117.5 -67.5q47 0 82 33t49.5 77.5t14.5 90.5zM526 223q0 -100 -72.5 -166.5t-173.5 -66.5q-106 0 -176 62.5t-70 166.5q0 102 72 167.5t175 65.5q105 0 175 -63t70 -166z" unicode="ö"/>
<glyph glyph-name="divide" d="M280 -10q-22 0 -38 16t-16 38q0 23 16 39t38 16t38.5 -16.5t16.5 -38.5t-16 -38t-39 -16zM280 343q-22 0 -38 15.5t-16 38.5t16 39t38 16t38.5 -16t16.5 -39q0 -22 -16 -38t-39 -16zM59 248h442v-54h-442v54z" unicode="÷"/>
<glyph glyph-name="oslash" d="M168 82l211 298q-40 50 -100 50q-57 0 -104.5 -51.5t-47.5 -150.5q0 -78 41 -146zM397 356l-212 -296q43 -48 97 -48q73 0 112 61t39 138q0 78 -36 145zM461 495l23 -16l-49 -71q43 -32 67 -81t24 -102q0 -105 -73 -170t-179 -65q-62 0 -118 27l-59 -81l-24 17l57 79 q-96 67 -96 179q0 62 23.5 110t61.5 75.5t80 41.5t84 14q70 0 126 -29z" unicode="ø"/>
<glyph glyph-name="ugrave" d="M205 716l149 -207l-14 -12l-182 170zM463 442l-6 -331q0 -5 -0.5 -15t-0.5 -14q0 -22 8 -33.5t33 -11.5l46 4l4 -15l-170 -41l3 78q-101 -73 -181 -73q-32 0 -54.5 12t-33.5 26t-16.5 38.5t-6 36.5t-0.5 32v175v34q0 39 -13 54.5t-58 15.5h-3v15l151 13v-247v-26 q0 -129 105 -129q61 0 110 44v215q0 31 -1 46t-5.5 31.5t-14.5 22.5t-27 10.5t-44 4.5v15z" unicode="ù"/>
<glyph glyph-name="uacute" d="M335 716l47 -49l-182 -170l-14 12zM463 442l-6 -331q0 -5 -0.5 -15t-0.5 -14q0 -22 8 -33.5t33 -11.5l46 4l4 -15l-170 -41l3 78q-101 -73 -181 -73q-32 0 -54.5 12t-33.5 26t-16.5 38.5t-6 36.5t-0.5 32v175v34q0 39 -13 54.5t-58 15.5h-3v15l151 13v-247v-26 q0 -129 105 -129q61 0 110 44v215q0 31 -1 46t-5.5 31.5t-14.5 22.5t-27 10.5t-44 4.5v15z" unicode="ú"/>
<glyph glyph-name="ucircumflex" d="M180 497l-16 7l112 234h9l111 -234l-14 -7l-103 146zM463 442l-6 -331q0 -5 -0.5 -15t-0.5 -14q0 -22 8 -33.5t33 -11.5l46 4l4 -15l-170 -41l3 78q-101 -73 -181 -73q-32 0 -54.5 12t-33.5 26t-16.5 38.5t-6 36.5t-0.5 32v175v34q0 39 -13 54.5t-58 15.5h-3v15l151 13 v-247v-26q0 -129 105 -129q61 0 110 44v215q0 31 -1 46t-5.5 31.5t-14.5 22.5t-27 10.5t-44 4.5v15z" unicode="û"/>
<glyph glyph-name="udieresis" d="M232 575q0 -20 -14 -34t-33 -14q-20 0 -34 14t-14 34t14 33.5t34 13.5q19 0 33 -14t14 -33zM423 575q0 -19 -14.5 -33.5t-33.5 -14.5t-33 14t-14 34q0 19 14 33t33 14q20 0 34 -14t14 -33zM463 442l-6 -331q0 -5 -0.5 -15t-0.5 -14q0 -22 8 -33.5t33 -11.5l46 4l4 -15 l-170 -41l3 78q-101 -73 -181 -73q-32 0 -54.5 12t-33.5 26t-16.5 38.5t-6 36.5t-0.5 32v175v34q0 39 -13 54.5t-58 15.5h-3v15l151 13v-247v-26q0 -129 105 -129q61 0 110 44v215q0 31 -1 46t-5.5 31.5t-14.5 22.5t-27 10.5t-44 4.5v15z" unicode="ü"/>
<glyph glyph-name="yacute" horiz-adv-x="460" unicode="ý" d="M305 716l47 -49l-182 -170l-14 12zM211 -27l-153 391q-15 36 -25.5 46.5t-46.5 16.5v15h207v-15q-54 -3 -54 -38q0 -17 18 -63l98 -254l62 180q34 99 34 128q0 22 -13 32.5t-42 14.5v15h175v-15q-31 -4 -46 -17t-31 -44l-42 -97l-154 -387q-28 -70 -50.5 -97t-52.5 -27 q-20 0 -34.5 14.5t-14.5 35.5q0 36 32 47q47 -28 53 -28t12.5 5.5t12 15t9 17.5t8 18.5t5.5 12.5z"/>
<glyph glyph-name="thorn" horiz-adv-x="540" unicode="þ" d="M150 373v-205q0 -21 1.5 -36.5t8 -38t19 -37t37 -25t58.5 -10.5q46 0 79 30.5t46.5 71.5t13.5 86q0 53 -18.5 93t-47 60.5t-55 30t-48.5 9.5q-51 0 -94 -29zM150 -7v-119q0 -63 15.5 -78t93.5 -23v-15h-259v15q50 8 61 24.5t12 76.5v657q0 35 -7 50.5t-42 40.5v10l119 48 l11 -4l-4 -61v-224q88 61 159 61q83 0 136 -62.5t53 -146.5q0 -97 -77.5 -175t-191.5 -78h-12z"/>
<glyph glyph-name="OE" horiz-adv-x="1020" unicode="Œ" d="M523 653l-64 3h-2q-141 0 -215 -87t-74 -231q0 -81 24.5 -144.5t64.5 -99t85 -53t91 -17.5q31 0 50 10.5t27.5 32.5t10.5 40.5t2 49.5v21v475zM611 329v-167q0 -85 23 -111.5t107 -26.5q97 0 140 40t70 137h15l-38 -201l-481 -4h-5q-103 0 -190 40t-142.5 120t-55.5 185 q0 109 56.5 188.5t144.5 117t195 37.5h5l465 -4l-15 -161h-15q0 16 -2.5 30.5t-10.5 35t-21 35.5t-38 25.5t-58 10.5h-149v-285h74q33 0 53 2.5t41.5 11t33.5 28t16 50.5h15v-223h-15q-3 26 -13 43.5t-20.5 26.5t-31.5 13.5t-35.5 5t-43.5 0.5h-74z"/>
<glyph glyph-name="oe" horiz-adv-x="840" unicode="œ" d="M794 305h-293l-2 -50v-8q0 -82 44.5 -137t124.5 -55q70 0 126 61l12 -13q-77 -113 -186 -113q-53 0 -88 20t-68 64q-35 -40 -86.5 -62t-106.5 -22q-99 0 -168 63.5t-69 161.5q0 102 71 169.5t174 67.5q119 0 185 -85q68 85 168 85q71 0 114.5 -38.5t47.5 -108.5zM421 213 q0 51 -13 97.5t-48.5 83t-87.5 36.5q-53 0 -87 -32.5t-46 -75.5t-12 -95q0 -87 40.5 -151t113.5 -64q72 0 106 61.5t34 139.5zM506 324l193 8q-4 38 -28.5 67.5t-62.5 29.5q-40 0 -67.5 -31.5t-34.5 -73.5z"/>
<glyph glyph-name="Scaron" horiz-adv-x="520" unicode="Š" d="M361 966l15 -8l-112 -233h-9l-111 233l14 8l103 -146zM439 654l-8 -150h-16q-15 75 -44.5 117t-96.5 42q-49 0 -83 -31t-34 -79q0 -47 32.5 -84t78.5 -63t92.5 -53.5t79 -70t32.5 -98.5q0 -61 -37.5 -107t-91.5 -67.5t-114 -21.5q-97 0 -176 51l-29 170h18 q21 -80 73 -135.5t129 -55.5q57 0 94.5 32.5t37.5 89.5q0 49 -31.5 86t-76.5 62t-90 50.5t-76.5 67t-31.5 96.5q0 84 68.5 137.5t154.5 53.5q75 0 146 -39z"/>
<glyph glyph-name="scaron" horiz-adv-x="360" unicode="š" d="M281 738l15 -8l-112 -233h-9l-111 233l14 8l103 -146zM299 419l3 -89l-22 -4q-9 29 -18 48t-28.5 36.5t-46.5 17.5q-30 0 -48 -19.5t-18 -50.5q0 -28 21.5 -50.5t52 -38.5t60.5 -33t51.5 -44t21.5 -63q0 -63 -50.5 -101t-115.5 -38q-70 0 -122 37l-8 111l23 4 q12 -54 41 -90t78 -36q34 0 55.5 22.5t21.5 56.5q0 31 -21.5 53.5t-51.5 37.5t-60.5 31t-52 44.5t-21.5 67.5q0 56 43.5 89.5t100.5 33.5q63 0 111 -33z"/>
<glyph glyph-name="Ydieresis" horiz-adv-x="600" unicode="Ÿ" d="M272 793q0 -20 -14 -34t-33 -14q-20 0 -34 14t-14 34t14 33.5t34 13.5q19 0 33 -14t14 -33zM463 793q0 -19 -14.5 -33.5t-33.5 -14.5t-33 14t-14 34q0 19 14 33t33 14q20 0 34 -14t14 -33zM370 680h257v-15q-61 -5 -99 -36t-73 -91l-118 -234v-113q1 -42 2.5 -61.5 t8 -43.5t20.5 -34.5t38 -20.5t63 -16v-15h-352v15q39 6 63 16t38 20.5t20.5 34.5t8 43.5t2.5 61.5v80l-104 227q-38 85 -60 111q-39 48 -106 56v15h276v-15q-63 -8 -63 -42q0 -19 24 -72l100 -216l87 165q40 74 40 111q0 24 -17.5 36.5t-55.5 17.5v15z"/>
<glyph glyph-name="circumflex" horiz-adv-x="360" unicode="ˆ" d="M80 497l-16 7l112 234h9l111 -234l-14 -7l-103 146z"/>
<glyph glyph-name="tilde" horiz-adv-x="500" unicode="˜" d="M137 578q-24 0 -64 -23l-9 14q79 55 115 55q25 0 79 -27q60 -27 80 -27q40 0 86 46l11 -11q-75 -82 -136 -82q-24 0 -82 27.5t-80 27.5z"/>
<glyph glyph-name="uni03BC" d="M380 84v215q0 31 -1 46t-5.5 31.5t-14.5 22.5t-27 10.5t-44 4.5v15l175 13l-6 -331q0 -5 -0.5 -15t-0.5 -14q0 -22 8 -33.5t33 -11.5l46 4l4 -15l-170 -41l3 78q-101 -73 -169 -73q-70 0 -91 54h-2v-116q0 -12 13 -51t13 -51q0 -27 -11.5 -47.5t-29.5 -20.5t-29.5 20.5 t-11.5 47.5q0 12 13 51t13 51v382v34q0 39 -13 54.5t-58 15.5h-3v15l151 13v-247v-26q0 -129 105 -129q61 0 110 44z" unicode="μ"/>
<glyph glyph-name="pi" horiz-adv-x="568" unicode="π" d="M515 469l25 -9q-13 -62 -36 -92q-20 -5 -68 -5q-4 -44 -4 -162v-64q0 -89 43 -89q23 0 49 28l13 -21q-18 -32 -46.5 -49.5t-58.5 -17.5q-43 0 -66.5 28.5t-23.5 98.5q0 96 10 250q-116 2 -154 2v-17q0 -103 -14 -184.5t-27 -114.5t-24 -46q-30 -13 -60 -17l-7 18 q50 61 71.5 164.5t21.5 198.5q-44 0 -69.5 -10.5t-58.5 -34.5l-15 23q1 1 9 11.5t10.5 12.5t11 11.5t12.5 13t13.5 11t17 11t19 8.5t22 7t24.5 4t29 2h3q5 0 108 -2t160 -2q24 0 36 6.5t24 27.5z"/>
<glyph glyph-name="endash" horiz-adv-x="500" unicode="–" d="M0 226v48h500v-48h-500z"/>
<glyph glyph-name="emdash" horiz-adv-x="1000" unicode="—" d="M0 226v48h1000v-48h-1000z"/>
<glyph glyph-name="quoteleft" horiz-adv-x="300" unicode="‘" d="M208 692l10 -15q-30 -22 -44 -33.5t-30.5 -36.5t-16.5 -51q0 -33 18 -48t42 -15q29 0 35 12q18 -15 18 -45q0 -25 -16.5 -42.5t-49.5 -17.5q-47 0 -76.5 34.5t-29.5 82.5q0 57 40.5 102.5t99.5 72.5z"/>
<glyph glyph-name="quotesinglbase" horiz-adv-x="300" unicode="‚" d="M100 -195l-10 15q30 22 44 33.5t30.5 36.5t16.5 51q0 33 -18 48t-42 15q-29 0 -35 -12q-18 15 -18 45q0 25 16.5 42.5t49.5 17.5q47 0 76.5 -34.5t29.5 -82.5q0 -57 -40.5 -102.5t-99.5 -72.5z"/>
<glyph glyph-name="quotedblleft" horiz-adv-x="520" unicode="“" d="M210 692l10 -15q-30 -22 -44 -33.5t-30.5 -36.5t-16.5 -51q0 -33 18 -48t42 -15q29 0 35 12q18 -15 18 -45q0 -25 -16.5 -42.5t-49.5 -17.5q-47 0 -76.5 34.5t-29.5 82.5q0 57 40.5 102.5t99.5 72.5zM426 692l10 -15q-30 -22 -44 -33.5t-30.5 -36.5t-16.5 -51 q0 -33 18 -48t42 -15q29 0 35 12q18 -15 18 -45q0 -25 -16.5 -42.5t-49.5 -17.5q-47 0 -76.5 34.5t-29.5 82.5q0 57 40.5 102.5t99.5 72.5z"/>
<glyph glyph-name="quotedblright" horiz-adv-x="520" unicode="”" d="M318 400l-10 15q30 22 44 33.5t30.5 36.5t16.5 51q0 33 -18 48t-42 15q-29 0 -35 -12q-18 15 -18 45q0 25 16.5 42.5t49.5 17.5q47 0 76.5 -34.5t29.5 -82.5q0 -57 -40.5 -102.5t-99.5 -72.5zM100 400l-10 15q30 22 44 33.5t30.5 36.5t16.5 51q0 33 -18 48t-42 15 q-29 0 -35 -12q-18 15 -18 45q0 25 16.5 42.5t49.5 17.5q47 0 76.5 -34.5t29.5 -82.5q0 -57 -40.5 -102.5t-99.5 -72.5z"/>
<glyph glyph-name="dagger" horiz-adv-x="540" unicode="†" d="M221 680h97l-24 -210l178 25v-88l-178 26l24 -653h-97l34 652l-188 -25v88l188 -26z"/>
<glyph glyph-name="daggerdbl" horiz-adv-x="540" unicode="‡" d="M246 437l-182 -29v94l182 -28l-26 206h99l-25 -206l181 28v-94l-181 29v-413l181 29v-94l-181 28l25 -207h-98l25 207l-182 -28v94l182 -29v413z"/>
<glyph glyph-name="ellipsis" horiz-adv-x="1000" unicode="…" d="M832 -12q-22 0 -38 16t-16 38q0 23 16 39t38 16t38.5 -16.5t16.5 -38.5t-16 -38t-39 -16zM499 -12q-23 0 -38.5 16t-15.5 38q0 23 16 39t38 16q23 0 39 -16.5t16 -38.5t-16 -38t-39 -16zM166 -12q-22 0 -38 16t-16 38q0 23 16 39t38 16t38.5 -16.5t16.5 -38.5t-16 -38 t-39 -16z"/>
<glyph glyph-name="perthousand" horiz-adv-x="960" unicode="‰" d="M535 680l-383 -680h-48l383 680h48zM158 672q-20 0 -33.5 -17.5t-19.5 -45t-8 -49t-2 -40.5t2 -40.5t8 -49.5t19.5 -46t33.5 -18q19 0 32.5 18t19.5 46t8 50t2 40t-2 39.5t-8 49t-19.5 45.5t-32.5 18zM159 692q63 0 94 -52.5t31 -120.5q0 -67 -31.5 -120t-94.5 -53 q-64 0 -95.5 52.5t-31.5 120.5q0 69 31.5 121t96.5 52zM797 316q-20 0 -33.5 -17.5t-19.5 -45t-8 -49t-2 -40.5t2 -40.5t8 -49.5t19.5 -46t33.5 -18q19 0 32.5 18t19.5 46t8 50t2 40t-2 39.5t-8 49t-19.5 45.5t-32.5 18zM798 336q63 0 94 -52.5t31 -120.5q0 -67 -31.5 -120 t-94.5 -53q-64 0 -95.5 52.5t-31.5 120.5q0 69 31.5 121t96.5 52zM481 316q-20 0 -33.5 -17.5t-19.5 -45t-8 -49t-2 -40.5t2 -40.5t8 -49.5t19.5 -46t33.5 -18q19 0 32.5 18t19.5 46t8 50t2 40t-2 39.5t-8 49t-19.5 45.5t-32.5 18zM482 336q63 0 94 -52.5t31 -120.5 q0 -67 -31.5 -120t-94.5 -53q-64 0 -95.5 52.5t-31.5 120.5q0 69 31.5 121t96.5 52z"/>
<glyph glyph-name="guilsinglleft" horiz-adv-x="320" unicode="‹" d="M58 249l166 155q24 24 27 24q7 0 7 -8q0 -17 -42.5 -74t-76.5 -97q23 -24 73 -89.5t50 -78.5q0 -9 -8 -9q-3 0 -7.5 3t-7.5 6.5t-7.5 8.5t-5.5 6z"/>
<glyph glyph-name="guilsinglright" horiz-adv-x="320" unicode="›" d="M266 249l-166 -155q-24 -24 -27 -24q-7 0 -7 8q0 17 42.5 74t76.5 97q-23 24 -73 89.5t-50 78.5q0 9 8 9q3 0 7.5 -3t7.5 -7t7.5 -8.5l5.5 -5.5z"/>
<glyph glyph-name="fraction" horiz-adv-x="80" unicode="⁄" d="M253 680l-382 -680h-48l382 680h48z"/>
<glyph glyph-name="Euro" d="M385 281h-202q11 -121 60.5 -194t121.5 -73q57 0 95.5 43.5t65.5 128.5l15 -6q-15 -70 -36 -149q-67 -43 -153 -43q-108 0 -184.5 76t-89.5 217h-72v30h70v23q0 38 4 69h-74v30h79q21 114 90 186.5t183 72.5q95 0 164 -54v-144h-15q-13 84 -52.5 128t-97.5 44 q-75 0 -117.5 -63.5t-54.5 -169.5h200v-30h-203q-2 -38 -2 -57q0 -24 1 -35h204v-30z" unicode="€"/>
<glyph glyph-name="trademark" horiz-adv-x="840" unicode="™" d="M773 645v-248q0 -26 7.5 -33t35.5 -8v-19h-142v19q28 1 35.5 8t7.5 33v245h-7l-120 -305h-8l-122 305h-7v-259q0 -11 7.5 -17t16 -7.5t25.5 -2.5v-19h-122v19q17 1 25.5 2.5t16 7.5t7.5 17v265q0 13 -23 13h-11v19h100l106 -253l101 253h109v-19q-14 0 -21 -1t-12 -4.5 t-5 -10.5zM43 597v83h292v-83h-22q0 38 -14.5 49t-54.5 11h-27v-274q0 -11 7.5 -17.5t16.5 -7.5t25 -2v-19h-154v19q17 1 25.5 2.5t16 7.5t7.5 17v274h-20q-23 0 -34 -1t-22.5 -6.5t-15.5 -18t-4 -34.5h-22z"/>
<glyph glyph-name="partialdiff" horiz-adv-x="533" unicode="∂" d="M286 386h-1q-65 0 -107 -57q-44 -68 -44 -188q0 -52 25 -86t68 -34q67 0 113 103q33 71 50 191q-11 25 -40 48t-64 23zM263 427h1q37 0 73.5 -17.5t60.5 -51.5q7 77 8 105v18q0 76 -26 138q-16 37 -51 64t-77 27q-68 0 -139 -59h-1q-11 0 -22 18t-11 36q0 4 2 12 q68 41 142 41q133 0 209 -140q50 -95 50 -230q0 -146 -48 -247q-71 -151 -207 -151q-83 0 -133.5 53.5t-50.5 145.5q0 96 59 164q29 33 71.5 53.5t89.5 20.5z"/>
<glyph glyph-name="product" horiz-adv-x="689" unicode="∏" d="M661 682v-27q-63 -4 -77 -16t-14 -56v-559q0 -51 14 -64t75 -18v-26h-262v26q58 5 70 16.5t12 64.5v592q0 21 -6.5 26.5t-29.5 5.5h-200q-22 0 -27.5 -5t-5.5 -24v-595q0 -51 10.5 -63.5t64.5 -17.5v-26h-256v26q61 5 75 18t14 63v560q0 45 -14 56.5t-78 15.5v27h635z "/>
<glyph glyph-name="summation" horiz-adv-x="555" unicode="∑" d="M532 102l-44 -190h-460v25l223 336l-218 383v26h455q1 -25 12 -163l-28 -5q-13 68 -33 102q-11 19 -31 26t-74 7h-187l183 -316l-223 -342h256q67 0 88.5 17.5t52.5 100.5z"/>
<glyph glyph-name="minus" d="M501 194h-443v54h443v-54z" unicode="−"/>
<glyph glyph-name="radical" horiz-adv-x="550" unicode="√" d="M534 869l-167 -1016l-22 -11l-216 540l-86 -42l-12 34l159 74l165 -428h2l137 859z"/>
<glyph glyph-name="infinity" horiz-adv-x="749" unicode="∞" d="M550 381h-1q-17 0 -34 -6t-34 -20.5t-26 -23t-27 -29.5t-20 -23q50 -58 80 -80.5t65 -22.5q40 0 65 31t25 69q0 48 -25.5 76.5t-67.5 28.5zM202 176h1q27 0 56 18.5t42 32t43 47.5q-29 38 -43 54t-43 34.5t-60 18.5q-42 0 -67.5 -30t-25.5 -76q0 -41 27.5 -70t69.5 -29z M701 281v-1q0 -71 -45 -115t-106 -44q-44 0 -85 26t-90 86q-45 -54 -86 -83t-94 -29q-60 0 -104 44.5t-44 110.5q0 69 44 114t111 45q50 0 91.5 -28.5t85.5 -82.5q26 29 37 40.5t35.5 32.5t50 29.5t54.5 8.5q63 0 104 -42.5t41 -111.5z"/>
<glyph glyph-name="approxequal" d="M471 256l38 -34q-51 -94 -129 -94q-43 0 -110 39q-56 32 -86 32t-51 -18.5t-44 -52.5l-38 33q22 43 59 69t79 26q14 0 26 -2t25 -7t19 -7.5t19.5 -10.5t15.5 -9t12 -7.5t13 -7.5t11.5 -6t12.5 -6.5t11 -3.5t13.5 -3t13.5 -1q27 0 47 17t43 54zM471 427l38 -34 q-52 -95 -129 -95q-42 0 -110 40q-55 32 -87 32q-29 0 -50 -18t-44 -53l-38 34q22 43 58.5 68.5t79.5 25.5q13 0 25.5 -2t25 -7t19 -8.5t19.5 -11t16 -8.5q3 -2 13.5 -8t13.5 -7.5t11.5 -6t12.5 -5.5t10.5 -3.5t12.5 -3t13 -0.5q27 0 47.5 17.5t42.5 53.5z" unicode="≈"/>
<glyph glyph-name="notequal" d="M400 491l-41 -90h142v-58h-165l-61 -136h226v-58h-250l-50 -111l-46 20l41 91h-137v58h161l60 136h-221v58h244l50 110z" unicode="≠"/>
<glyph glyph-name="lessequal" d="M502 0h-443v60h443v-60zM499 98l-435 216v62l434 216v-69l-373 -176v-2l374 -178v-69z" unicode="≤"/>
<glyph glyph-name="greaterequal" d="M500 0h-440v60h440v-60zM65 592l435 -216v-62l-435 -216v69l373 177v2l-373 177v69z" unicode="≥"/>
<glyph glyph-name="lozenge" horiz-adv-x="558" unicode="◊" d="M443 328l-162 336h-3l-164 -335l164 -337h3zM510 328l-197 -397h-69l-196 397l197 400h69z"/>
</font>
</defs>
</svg>
